<svg version="1.1" id="Layer_1" xmlns="http://www.w3.org/2000/svg" xmlns:xlink="http://www.w3.org/1999/xlink" x="0px" y="0px"
	 width="100%" viewBox="0 0 200 200" enable-background="new 0 0 200 200" xml:space="preserve">
<path fill="#FEFEFE" opacity="1.000000" stroke="none" 
	d="
M92.000000,201.000000 
	C61.352196,201.000000 31.204393,201.000000 1.028295,201.000000 
	C1.028295,134.393890 1.028295,67.787773 1.028295,1.090827 
	C67.564316,1.090827 134.128799,1.090827 200.846649,1.090827 
	C200.846649,67.666397 200.846649,134.333160 200.846649,201.000000 
	C164.788071,201.000000 128.644028,201.000000 92.000000,201.000000 
M150.469574,119.141548 
	C150.469574,119.141548 150.918884,119.038605 151.816772,119.314606 
	C157.134216,119.048820 162.451645,118.783028 167.769089,118.517242 
	C168.715637,118.230568 169.916138,118.847672 171.162476,119.351425 
	C174.971649,120.891052 176.456161,117.008102 178.986084,116.719460 
	C179.622238,117.592018 180.211365,119.173454 180.902390,119.219315 
	C184.695480,119.471039 188.554413,119.670486 192.303558,119.197243 
	C193.876099,118.998749 195.234268,117.101875 196.689911,115.977135 
	C196.286102,115.335167 195.882309,114.693199 195.478516,114.051239 
	C192.234833,115.317947 188.991165,116.584663 185.714600,117.864212 
	C186.657303,109.475395 194.259460,114.894714 198.334839,111.273560 
	C192.251709,111.273560 186.926926,111.273560 181.985260,111.273560 
	C181.226532,112.273636 180.557556,113.155403 179.377930,113.471672 
	C177.305298,113.313889 175.232681,113.156105 172.118668,112.919037 
	C171.058685,108.956154 166.787689,111.103012 162.623840,111.976913 
	C162.395538,111.935860 162.167236,111.894814 161.382751,111.134087 
	C158.987640,111.131989 156.592514,111.129898 153.526306,111.089439 
	C153.302246,111.088066 153.078186,111.086700 151.940613,111.011024 
	C147.113358,111.011024 142.286087,111.011024 137.546921,111.011024 
	C136.304642,113.595451 135.135162,116.028419 133.700241,119.013634 
	C139.539124,119.013634 144.782928,119.013634 150.469574,119.141548 
M93.899345,71.898476 
	C105.547401,70.639786 117.026588,70.267799 127.505272,78.751923 
	C158.656433,81.914795 189.906586,90.248802 195.256577,97.606537 
	C185.340363,97.606537 176.096375,97.606537 166.852402,97.606537 
	C166.855347,98.415298 166.858276,99.224068 166.861221,100.032829 
	C175.422394,100.032829 183.988556,100.187683 192.540833,99.911781 
	C194.416473,99.851265 196.242645,98.257591 198.091599,97.369965 
	C196.947922,95.427193 196.249496,92.412918 194.585785,91.721588 
	C186.021683,88.162888 177.431519,84.099327 168.432587,82.287132 
	C154.828064,79.547455 140.878357,78.521759 126.801422,76.175507 
	C122.772682,71.814438 118.140518,67.912575 112.043808,67.969727 
	C105.693810,68.029251 99.356056,69.395363 92.370064,69.683960 
	C91.790588,62.649803 91.216629,62.225441 83.898560,63.709499 
	C84.958961,68.902916 81.513252,71.294868 77.429741,72.600075 
	C70.003288,74.973763 62.421780,76.861145 54.913219,78.980652 
	C54.004017,79.237305 53.145702,79.674225 52.263802,80.027603 
	C52.441433,80.460121 52.619068,80.892647 52.796703,81.325165 
	C65.659889,78.193245 80.143791,79.086739 88.442711,66.004333 
	C90.069595,68.055283 91.541779,69.911217 93.899345,71.898476 
M163.457443,126.040382 
	C163.457443,126.040382 162.991257,126.211685 162.066528,126.057907 
	C154.982269,126.164574 147.897995,126.271240 140.135193,126.701767 
	C132.253571,126.499596 124.372322,126.273438 116.489449,126.153862 
	C116.008507,126.146576 115.514755,126.983788 114.451752,126.577087 
	C107.303970,126.454529 100.156197,126.331970 92.315186,126.155945 
	C92.542068,126.799141 92.768944,127.442345 93.667786,128.432312 
	C95.059700,128.558609 96.451607,128.684921 98.164108,128.840302 
	C96.086586,132.347382 94.284012,135.390320 92.307503,138.726852 
	C101.958290,139.284790 105.408691,136.743622 106.766418,128.514862 
	C106.766418,128.514862 106.816307,128.332962 107.638168,128.468369 
	C110.136696,128.040527 112.635223,127.612686 115.536621,127.998802 
	C114.443336,130.319687 113.403954,132.667938 112.242752,134.954330 
	C110.874535,137.648346 111.474770,139.004944 114.648254,138.984451 
	C120.449661,138.946991 126.251968,139.007278 132.052490,138.926376 
	C132.780731,138.916229 133.500519,138.299072 134.224213,137.963165 
	C134.162247,137.599899 134.100281,137.236649 134.038315,136.873383 
	C129.735306,136.873383 125.432297,136.873383 121.129280,136.873383 
	C121.039154,136.212479 120.949028,135.551590 120.858894,134.890686 
	C125.123070,134.164719 129.387238,133.438766 133.651413,132.712799 
	C133.550537,132.103073 133.449661,131.493347 133.348785,130.883621 
	C130.543274,130.883621 127.737755,130.883621 124.932236,130.883621 
	C129.788879,127.761681 134.897980,128.325363 140.139816,129.664841 
	C139.306168,131.079926 138.477692,132.498108 137.637848,133.909485 
	C135.147293,138.094910 135.582993,138.916534 140.492874,138.943390 
	C146.586166,138.976700 152.679932,138.918915 159.499954,138.920090 
	C159.742157,138.915543 159.984344,138.910995 161.094177,138.927505 
	C164.217621,138.115768 167.894348,140.757721 170.656265,136.922607 
	C171.870804,135.236145 174.335815,134.450256 176.233078,133.255478 
	C176.514999,133.654572 176.796921,134.053650 177.078842,134.452744 
	C176.526184,135.858582 175.973526,137.264420 174.889359,140.022308 
	C178.939102,138.886292 182.370224,138.693924 184.767288,137.020401 
	C186.882523,135.543640 188.044464,132.506531 189.213394,129.967789 
	C189.664413,128.988266 188.974289,127.483315 188.804062,126.217751 
	C186.427444,126.778152 183.198624,126.579979 181.869675,128.072937 
	C179.763779,130.438766 178.099762,131.881958 174.869171,130.618591 
	C175.511383,129.147629 176.126358,127.739044 176.882950,126.006111 
	C172.974731,126.006111 169.495087,126.006111 165.329102,125.941277 
	C164.870621,125.967194 164.412140,125.993103 163.457443,126.040382 
M117.894722,119.333015 
	C122.833405,119.333015 127.772095,119.333015 133.258759,119.333015 
	C132.014786,116.673271 131.504776,114.079460 129.931229,112.690849 
	C128.657135,111.566490 125.603691,110.995270 124.223282,111.764565 
	C121.497978,113.283348 119.384865,115.900658 116.304054,118.056549 
	C116.121849,117.410286 115.591042,116.576187 115.819916,116.151428 
	C116.652794,114.605728 117.739769,113.196938 119.080353,111.221687 
	C112.620972,111.221687 107.230003,111.221687 102.288254,111.221687 
	C100.775696,114.068665 99.462616,116.540184 98.149529,119.011711 
	C98.445488,119.432785 98.741447,119.853859 99.037399,120.274933 
	C101.319199,119.176003 103.562965,117.984146 105.902641,117.026611 
	C106.765991,116.673286 108.553818,116.517563 108.734474,116.873474 
	C110.729912,120.804665 114.037468,119.190262 117.894722,119.333015 
M20.563087,70.515884 
	C19.086685,72.299850 17.462080,73.983139 16.166553,75.889999 
	C13.885202,79.247849 14.851895,81.018723 18.947302,81.114380 
	C22.588223,81.199417 26.232681,81.133255 29.875580,81.133087 
	C37.576485,81.132744 40.273891,79.079208 42.785202,70.989677 
	C36.805317,70.663422 30.924990,70.342606 24.491140,69.641716 
	C23.145378,68.051331 21.831671,66.762802 20.563087,70.515884 
M52.091991,113.193443 
	C51.220486,112.570236 50.363598,111.432610 49.475094,111.407356 
	C43.734993,111.244194 37.987999,111.323814 31.670277,111.323814 
	C32.689651,113.820343 33.421360,115.612358 34.150425,117.397896 
	C23.536566,124.363174 12.985501,131.287247 1.224551,139.005295 
	C22.599380,139.005295 42.386932,139.006805 62.174477,138.998108 
	C62.781776,138.997849 63.389027,138.891327 64.691093,138.769150 
	C60.459106,130.178070 56.448841,122.037079 52.091991,113.193443 
M83.149796,132.745819 
	C87.588432,125.870148 92.027077,118.994469 96.786713,111.621552 
	C86.951744,111.621552 78.127953,111.621552 68.836021,111.621552 
	C69.795593,113.834892 70.565269,115.610214 71.346031,117.411118 
	C71.028587,117.697639 70.722198,117.873741 70.557411,118.138100 
	C68.314163,121.736900 64.834923,125.132767 64.170761,129.008820 
	C63.283489,134.186966 69.298737,138.540665 74.624863,139.157593 
	C79.568954,139.730286 80.741135,136.229446 83.149796,132.745819 
M119.182259,91.580482 
	C115.911507,95.990898 112.071365,97.751579 106.252632,96.336273 
	C100.634842,94.969841 94.660660,95.068665 88.843040,94.523804 
	C95.406471,97.080193 102.015373,98.672073 108.691032,99.901428 
	C110.679420,100.267601 113.047905,100.095512 114.909569,99.344948 
	C121.084923,96.855247 124.276215,91.871353 125.763206,85.077415 
	C107.089447,82.413109 89.100197,83.800499 71.405487,89.439934 
	C87.763420,88.448120 104.073967,85.456749 120.798225,88.491524 
	C120.313721,89.529556 119.973114,90.259293 119.182259,91.580482 
M33.283699,89.862274 
	C32.687237,92.269905 32.090775,94.677536 31.494314,97.085167 
	C31.960072,97.228531 32.425831,97.371902 32.891586,97.515274 
	C33.871445,89.131271 41.585438,89.182396 47.458767,86.553024 
	C42.494949,83.114235 38.826115,84.009552 33.283699,89.862274 
M138.974823,96.910873 
	C140.241425,89.046539 147.756363,89.167191 153.647781,86.401848 
	C148.980011,82.724075 145.394760,84.570335 142.265976,86.983765 
	C138.947052,89.543869 136.045792,92.662460 138.974823,96.910873 
M44.182915,102.648445 
	C51.791313,99.682274 54.673676,94.764549 51.381256,89.852272 
	C51.293560,97.683807 43.542721,97.672623 38.779041,101.847969 
	C40.963310,102.286354 42.217026,102.537971 44.182915,102.648445 
M149.465927,98.935791 
	C148.117386,99.657043 146.768845,100.378296 144.896561,101.379654 
	C149.604065,103.946869 152.787598,102.196571 155.583237,99.681503 
	C158.214188,97.314575 159.742661,94.369324 158.846268,91.377937 
	C155.879700,93.856476 153.005630,96.257736 149.465927,98.935791 
M21.323952,84.632942 
	C21.323952,86.211380 21.323952,87.789825 21.323952,90.430885 
	C25.382162,88.603897 28.713491,87.104149 32.044819,85.604401 
	C31.986160,85.105690 31.927502,84.606972 31.868843,84.108261 
	C28.585041,84.108261 25.301241,84.108261 21.323952,84.632942 
z"/>
<path fill="#125836" opacity="1.000000" stroke="none" 
	d="
M52.265282,113.544769 
	C56.448841,122.037079 60.459106,130.178070 64.691093,138.769150 
	C63.389027,138.891327 62.781776,138.997849 62.174477,138.998108 
	C42.386932,139.006805 22.599380,139.005295 1.224551,139.005295 
	C12.985501,131.287247 23.536566,124.363174 34.150425,117.397896 
	C33.421360,115.612358 32.689651,113.820343 31.670277,111.323814 
	C37.987999,111.323814 43.734993,111.244194 49.475094,111.407356 
	C50.363598,111.432610 51.220486,112.570236 52.265282,113.544769 
M37.464745,133.021683 
	C38.842651,133.021683 40.220562,133.021683 42.158062,133.021683 
	C40.980869,130.648041 40.146904,128.966476 39.177166,127.011139 
	C37.337936,128.198273 35.843590,129.162720 34.349308,130.127274 
	C33.031376,130.977997 31.713509,131.828812 29.865656,133.021683 
	C32.617180,133.021683 34.624264,133.021683 37.464745,133.021683 
z"/>
<path fill="#155A39" opacity="1.000000" stroke="none" 
	d="
M82.973686,133.070465 
	C80.741135,136.229446 79.568954,139.730286 74.624863,139.157593 
	C69.298737,138.540665 63.283489,134.186966 64.170761,129.008820 
	C64.834923,125.132767 68.314163,121.736900 70.557411,118.138100 
	C70.722198,117.873741 71.028587,117.697639 71.346031,117.411118 
	C70.565269,115.610214 69.795593,113.834892 68.836021,111.621552 
	C78.127953,111.621552 86.951744,111.621552 96.786713,111.621552 
	C92.027077,118.994469 87.588432,125.870148 82.973686,133.070465 
z"/>
<path fill="#BFA265" opacity="1.000000" stroke="none" 
	d="
M127.075348,76.767715 
	C140.878357,78.521759 154.828064,79.547455 168.432587,82.287132 
	C177.431519,84.099327 186.021683,88.162888 194.585785,91.721588 
	C196.249496,92.412918 196.947922,95.427193 198.091599,97.369965 
	C196.242645,98.257591 194.416473,99.851265 192.540833,99.911781 
	C183.988556,100.187683 175.422394,100.032829 166.861221,100.032829 
	C166.858276,99.224068 166.855347,98.415298 166.852402,97.606537 
	C176.096375,97.606537 185.340363,97.606537 195.256577,97.606537 
	C189.906586,90.248802 158.656433,81.914795 127.253441,78.114807 
	C127.026184,77.241043 127.050766,77.004379 127.075348,76.767715 
z"/>
<path fill="#BFA164" opacity="1.000000" stroke="none" 
	d="
M119.407387,91.284760 
	C119.973114,90.259293 120.313721,89.529556 120.798225,88.491524 
	C104.073967,85.456749 87.763420,88.448120 71.405487,89.439934 
	C89.100197,83.800499 107.089447,82.413109 125.763206,85.077415 
	C124.276215,91.871353 121.084923,96.855247 114.909569,99.344948 
	C113.047905,100.095512 110.679420,100.267601 108.691032,99.901428 
	C102.015373,98.672073 95.406471,97.080193 88.843040,94.523804 
	C94.660660,95.068665 100.634842,94.969841 106.252632,96.336273 
	C112.071365,97.751579 115.911507,95.990898 119.407387,91.284760 
z"/>
<path fill="#0B0B0B" opacity="1.000000" stroke="none" 
	d="
M166.015442,126.006111 
	C169.495087,126.006111 172.974731,126.006111 176.882950,126.006111 
	C176.126358,127.739044 175.511383,129.147629 174.869171,130.618591 
	C178.099762,131.881958 179.763779,130.438766 181.869675,128.072937 
	C183.198624,126.579979 186.427444,126.778152 188.804062,126.217751 
	C188.974289,127.483315 189.664413,128.988266 189.213394,129.967789 
	C188.044464,132.506531 186.882523,135.543640 184.767288,137.020401 
	C182.370224,138.693924 178.939102,138.886292 174.889359,140.022308 
	C175.973526,137.264420 176.526184,135.858582 177.078842,134.452744 
	C176.796921,134.053650 176.514999,133.654572 176.233078,133.255478 
	C174.335815,134.450256 171.870804,135.236145 170.656265,136.922607 
	C167.894348,140.757721 164.217621,138.115768 160.691681,138.582520 
	C162.197922,134.160385 164.106674,130.083252 166.015442,126.006111 
z"/>
<path fill="#131313" opacity="1.000000" stroke="none" 
	d="
M115.026962,127.428062 
	C115.514755,126.983788 116.008507,126.146576 116.489449,126.153862 
	C124.372322,126.273438 132.253571,126.499596 140.559570,126.872437 
	C141.012085,127.270226 141.040222,127.497353 140.599808,127.596741 
	C140.081329,128.005783 140.031403,128.542572 139.963043,129.039871 
	C139.944611,129.000397 140.012238,128.945465 140.012238,128.945465 
	C134.897980,128.325363 129.788879,127.761681 124.932236,130.883621 
	C127.737755,130.883621 130.543274,130.883621 133.348785,130.883621 
	C133.449661,131.493347 133.550537,132.103073 133.651413,132.712799 
	C129.387238,133.438766 125.123070,134.164719 120.858894,134.890686 
	C120.949028,135.551590 121.039154,136.212479 121.129280,136.873383 
	C125.432297,136.873383 129.735306,136.873383 134.038315,136.873383 
	C134.100281,137.236649 134.162247,137.599899 134.224213,137.963165 
	C133.500519,138.299072 132.780731,138.916229 132.052490,138.926376 
	C126.251968,139.007278 120.449661,138.946991 114.648254,138.984451 
	C111.474770,139.004944 110.874535,137.648346 112.242752,134.954330 
	C113.403954,132.667938 114.443336,130.319687 115.326744,127.639786 
	C115.116867,127.280777 115.026962,127.428062 115.026962,127.428062 
z"/>
<path fill="#0B0B0B" opacity="1.000000" stroke="none" 
	d="
M141.068344,127.724480 
	C141.040222,127.497353 141.012085,127.270226 140.898849,126.710510 
	C147.897995,126.271240 154.982269,126.164574 162.531006,126.460281 
	C163.019699,127.296028 163.043915,127.729401 162.955872,128.499664 
	C160.645874,129.885681 159.189423,131.668808 156.162567,128.819168 
	C152.958557,125.802734 148.976486,129.146439 146.170425,137.009964 
	C149.739807,137.009964 153.145477,136.895340 156.532471,137.096100 
	C157.312393,137.142319 158.028198,138.270325 158.773499,138.900482 
	C152.679932,138.918915 146.586166,138.976700 140.492874,138.943390 
	C135.582993,138.916534 135.147293,138.094910 137.637848,133.909485 
	C138.477692,132.498108 139.306168,131.079926 140.076019,129.305145 
	C140.012238,128.945465 139.944611,129.000397 140.314529,129.020172 
	C140.812424,128.601456 140.940384,128.162964 141.068344,127.724480 
z"/>
<path fill="#090909" opacity="1.000000" stroke="none" 
	d="
M163.067780,111.441010 
	C166.787689,111.103012 171.058685,108.956154 172.118668,112.919037 
	C175.232681,113.156105 177.305298,113.313889 179.669754,113.731789 
	C179.961578,113.991905 180.028702,113.938339 179.600525,113.956978 
	C179.109650,114.680473 179.046936,115.385330 179.012970,116.034424 
	C179.041702,115.978661 179.130310,115.889816 179.130310,115.889816 
	C176.456161,117.008102 174.971649,120.891052 171.162476,119.351425 
	C169.916138,118.847672 168.715637,118.230568 167.769089,118.517242 
	C162.451645,118.783028 157.134216,119.048820 151.470688,118.830811 
	C152.148865,115.940605 153.173126,113.534203 154.197403,111.127800 
	C156.592514,111.129898 158.987640,111.131989 161.546539,111.743622 
	C161.289474,112.976822 160.868637,113.600479 160.447800,114.224136 
	C161.147079,114.366463 161.846375,114.508781 162.545654,114.651100 
	C162.719681,113.581070 162.893723,112.511040 163.067780,111.441010 
M158.582108,117.739456 
	C158.973907,117.757668 159.365707,117.775879 159.757507,117.794090 
	C159.766052,117.383186 159.774597,116.972290 159.783142,116.561378 
	C159.435074,116.667488 159.087006,116.773605 158.582108,117.739456 
z"/>
<path fill="#BEA063" opacity="1.000000" stroke="none" 
	d="
M25.044662,70.021790 
	C30.924990,70.342606 36.805317,70.663422 42.785202,70.989677 
	C40.273891,79.079208 37.576485,81.132744 29.875580,81.133087 
	C26.232681,81.133255 22.588223,81.199417 18.947302,81.114380 
	C14.851895,81.018723 13.885202,79.247849 16.166553,75.889999 
	C17.462080,73.983139 19.086685,72.299850 21.097763,70.397675 
	C21.213140,72.757523 20.793842,75.235588 20.285532,78.239723 
	C26.077023,76.482170 33.155510,81.321213 37.956406,74.113976 
	C33.320072,72.644554 29.182367,71.333168 25.044662,70.021790 
z"/>
<path fill="#0D0D0D" opacity="1.000000" stroke="none" 
	d="
M114.739357,127.002579 
	C115.026962,127.428062 115.116867,127.280777 115.125305,127.232811 
	C112.635223,127.612686 110.136696,128.040527 106.967621,128.347961 
	C106.183121,128.285492 106.069168,128.343430 105.955215,128.401367 
	C106.225319,128.502075 106.495430,128.602768 106.765533,128.703476 
	C105.408691,136.743622 101.958290,139.284790 92.307503,138.726852 
	C94.284012,135.390320 96.086586,132.347382 98.164108,128.840302 
	C96.451607,128.684921 95.059700,128.558609 93.332512,127.946106 
	C93.000969,127.043068 93.004692,126.626236 93.008415,126.209412 
	C100.156197,126.331970 107.303970,126.454529 114.739357,127.002579 
z"/>
<path fill="#111111" opacity="1.000000" stroke="none" 
	d="
M116.998566,119.045097 
	C114.037468,119.190262 110.729912,120.804665 108.734474,116.873474 
	C108.553818,116.517563 106.765991,116.673286 105.902641,117.026611 
	C103.562965,117.984146 101.319199,119.176003 99.037399,120.274933 
	C98.741447,119.853859 98.445488,119.432785 98.149529,119.011711 
	C99.462616,116.540184 100.775696,114.068665 102.288254,111.221687 
	C107.230003,111.221687 112.620972,111.221687 119.080353,111.221687 
	C117.739769,113.196938 116.652794,114.605728 115.819916,116.151428 
	C115.591042,116.576187 116.121849,117.410286 116.657982,118.305511 
	C117.011909,118.554466 116.998566,119.045097 116.998566,119.045097 
z"/>
<path fill="#EFEFEF" opacity="1.000000" stroke="none" 
	d="
M159.136719,138.910294 
	C158.028198,138.270325 157.312393,137.142319 156.532471,137.096100 
	C153.145477,136.895340 149.739807,137.009964 146.170425,137.009964 
	C148.976486,129.146439 152.958557,125.802734 156.162567,128.819168 
	C159.189423,131.668808 160.645874,129.885681 163.227386,128.331894 
	C163.725311,127.224503 163.839478,126.621758 163.953644,126.019012 
	C164.412140,125.993103 164.870621,125.967194 165.672272,125.973694 
	C164.106674,130.083252 162.197922,134.160385 160.257843,138.571991 
	C159.984344,138.910995 159.742157,138.915543 159.136719,138.910294 
z"/>
<path fill="#C4A970" opacity="1.000000" stroke="none" 
	d="
M93.013969,71.767151 
	C91.541779,69.911217 90.069595,68.055283 88.442711,66.004333 
	C80.143791,79.086739 65.659889,78.193245 52.796703,81.325165 
	C52.619068,80.892647 52.441433,80.460121 52.263802,80.027603 
	C53.145702,79.674225 54.004017,79.237305 54.913219,78.980652 
	C62.421780,76.861145 70.003288,74.973763 77.429741,72.600075 
	C81.513252,71.294868 84.958961,68.902916 83.898560,63.709499 
	C91.216629,62.225441 91.790588,62.649803 92.690247,70.199860 
	C93.011604,71.066223 93.012787,71.416687 93.013969,71.767151 
z"/>
<path fill="#080808" opacity="1.000000" stroke="none" 
	d="
M179.925079,114.014542 
	C180.557556,113.155403 181.226532,112.273636 181.985260,111.273560 
	C186.926926,111.273560 192.251709,111.273560 198.334839,111.273560 
	C194.259460,114.894714 186.657303,109.475395 185.714600,117.864212 
	C188.991165,116.584663 192.234833,115.317947 195.478516,114.051239 
	C195.882309,114.693199 196.286102,115.335167 196.689911,115.977135 
	C195.234268,117.101875 193.876099,118.998749 192.303558,119.197243 
	C188.554413,119.670486 184.695480,119.471039 180.902390,119.219315 
	C180.211365,119.173454 179.622238,117.592018 179.058197,116.304642 
	C179.130310,115.889816 179.041702,115.978661 179.370117,115.887726 
	C179.808594,115.177299 179.918655,114.557823 180.028702,113.938339 
	C180.028702,113.938339 179.961578,113.991905 179.925079,114.014542 
z"/>
<path fill="#C0A367" opacity="1.000000" stroke="none" 
	d="
M93.456657,71.832809 
	C93.012787,71.416687 93.011604,71.066223 93.011688,70.452972 
	C99.356056,69.395363 105.693810,68.029251 112.043808,67.969727 
	C118.140518,67.912575 122.772682,71.814438 126.938385,76.471611 
	C127.050766,77.004379 127.026184,77.241043 126.964111,77.832916 
	C117.026588,70.267799 105.547401,70.639786 93.456657,71.832809 
z"/>
<path fill="#FCFBF9" opacity="1.000000" stroke="none" 
	d="
M24.767902,69.831757 
	C29.182367,71.333168 33.320072,72.644554 37.956406,74.113976 
	C33.155510,81.321213 26.077023,76.482170 20.285532,78.239723 
	C20.793842,75.235588 21.213140,72.757523 21.316166,70.145966 
	C21.831671,66.762802 23.145378,68.051331 24.767902,69.831757 
z"/>
<path fill="#0D0D0D" opacity="1.000000" stroke="none" 
	d="
M117.446640,119.189056 
	C116.998566,119.045097 117.011909,118.554466 117.015259,118.309082 
	C119.384865,115.900658 121.497978,113.283348 124.223282,111.764565 
	C125.603691,110.995270 128.657135,111.566490 129.931229,112.690849 
	C131.504776,114.079460 132.014786,116.673271 133.258759,119.333015 
	C127.772095,119.333015 122.833405,119.333015 117.446640,119.189056 
z"/>
<path fill="#080808" opacity="1.000000" stroke="none" 
	d="
M150.026733,119.013634 
	C144.782928,119.013634 139.539124,119.013634 133.700241,119.013634 
	C135.135162,116.028419 136.304642,113.595451 137.546921,111.011024 
	C142.286087,111.011024 147.113358,111.011024 152.289230,111.386047 
	C151.143509,112.371239 149.277588,113.876457 148.218994,113.436996 
	C143.584747,111.513153 142.187195,114.045959 141.105301,117.387894 
	C144.214951,117.954559 147.120850,118.484100 150.026733,119.013634 
z"/>
<path fill="#C1A56A" opacity="1.000000" stroke="none" 
	d="
M33.500755,89.570595 
	C38.826115,84.009552 42.494949,83.114235 47.458767,86.553024 
	C41.585438,89.182396 33.871445,89.131271 32.891586,97.515274 
	C32.425831,97.371902 31.960072,97.228531 31.494314,97.085167 
	C32.090775,94.677536 32.687237,92.269905 33.500755,89.570595 
z"/>
<path fill="#C0A367" opacity="1.000000" stroke="none" 
	d="
M138.801666,97.186134 
	C136.045792,92.662460 138.947052,89.543869 142.265976,86.983765 
	C145.394760,84.570335 148.980011,82.724075 153.647781,86.401848 
	C147.756363,89.167191 140.241425,89.046539 138.801666,97.186134 
z"/>
<path fill="#C3A76E" opacity="1.000000" stroke="none" 
	d="
M43.826828,102.719025 
	C42.217026,102.537971 40.963310,102.286354 38.779041,101.847969 
	C43.542721,97.672623 51.293560,97.683807 51.381256,89.852272 
	C54.673676,94.764549 51.791313,99.682274 43.826828,102.719025 
z"/>
<path fill="#C2A66D" opacity="1.000000" stroke="none" 
	d="
M149.798737,98.797394 
	C153.005630,96.257736 155.879700,93.856476 158.846268,91.377937 
	C159.742661,94.369324 158.214188,97.314575 155.583237,99.681503 
	C152.787598,102.196571 149.604065,103.946869 144.896561,101.379654 
	C146.768845,100.378296 148.117386,99.657043 149.798737,98.797394 
z"/>
<path fill="#C3C3C3" opacity="1.000000" stroke="none" 
	d="
M150.248154,119.077591 
	C147.120850,118.484100 144.214951,117.954559 141.105301,117.387894 
	C142.187195,114.045959 143.584747,111.513153 148.218994,113.436996 
	C149.277588,113.876457 151.143509,112.371239 152.746002,111.423203 
	C153.078186,111.086700 153.302246,111.088066 153.861847,111.108620 
	C153.173126,113.534203 152.148865,115.940605 151.021744,118.692810 
	C150.918884,119.038605 150.469574,119.141548 150.248154,119.077591 
z"/>
<path fill="#C4A970" opacity="1.000000" stroke="none" 
	d="
M21.670696,84.370605 
	C25.301241,84.108261 28.585041,84.108261 31.868843,84.108261 
	C31.927502,84.606972 31.986160,85.105690 32.044819,85.604401 
	C28.713491,87.104149 25.382162,88.603897 21.323952,90.430885 
	C21.323952,87.789825 21.323952,86.211380 21.670696,84.370605 
z"/>
<path fill="#0D0D0D" opacity="1.000000" stroke="none" 
	d="
M162.845795,111.708961 
	C162.893723,112.511040 162.719681,113.581070 162.545654,114.651100 
	C161.846375,114.508781 161.147079,114.366463 160.447800,114.224136 
	C160.868637,113.600479 161.289474,112.976822 161.824615,112.103462 
	C162.167236,111.894814 162.395538,111.935860 162.845795,111.708961 
z"/>
<path fill="#131313" opacity="1.000000" stroke="none" 
	d="
M92.661804,126.182678 
	C93.004692,126.626236 93.000969,127.043068 92.996529,127.772720 
	C92.768944,127.442345 92.542068,126.799141 92.661804,126.182678 
z"/>
<path fill="#131313" opacity="1.000000" stroke="none" 
	d="
M163.705536,126.029694 
	C163.839478,126.621758 163.725311,127.224503 163.339630,127.995018 
	C163.043915,127.729401 163.019699,127.296028 162.993378,126.537170 
	C162.991257,126.211685 163.457443,126.040382 163.705536,126.029694 
z"/>
<path fill="#131313" opacity="1.000000" stroke="none" 
	d="
M106.765976,128.609161 
	C106.495430,128.602768 106.225319,128.502075 105.955215,128.401367 
	C106.069168,128.343430 106.183121,128.285492 106.556686,128.280258 
	C106.816307,128.332962 106.766418,128.514862 106.765976,128.609161 
z"/>
<path fill="#EFF4F2" opacity="1.000000" stroke="none" 
	d="
M37.048046,133.021683 
	C34.624264,133.021683 32.617180,133.021683 29.865656,133.021683 
	C31.713509,131.828812 33.031376,130.977997 34.349308,130.127274 
	C35.843590,129.162720 37.337936,128.198273 39.177166,127.011139 
	C40.146904,128.966476 40.980869,130.648041 42.158062,133.021683 
	C40.220562,133.021683 38.842651,133.021683 37.048046,133.021683 
z"/>
<path fill="#FEFEFE" opacity="1.000000" stroke="none" 
	d="
M140.599808,127.596741 
	C140.940384,128.162964 140.812424,128.601456 140.332962,129.059647 
	C140.031403,128.542572 140.081329,128.005783 140.599808,127.596741 
z"/>
<path fill="#FEFEFE" opacity="1.000000" stroke="none" 
	d="
M179.600525,113.956978 
	C179.918655,114.557823 179.808594,115.177299 179.341385,115.943481 
	C179.046936,115.385330 179.109650,114.680473 179.600525,113.956978 
z"/>
<path fill="#FEFEFE" opacity="1.000000" stroke="none" 
	d="
M158.660522,117.309586 
	C159.087006,116.773605 159.435074,116.667488 159.783142,116.561386 
	C159.774597,116.972290 159.766052,117.383186 159.757507,117.794083 
	C159.365707,117.775879 158.973907,117.757668 158.660522,117.309586 
z"/>
</svg>