<?xml version="1.0" standalone="no"?>
<!DOCTYPE svg PUBLIC "-//W3C//DTD SVG 20010904//EN"
 "http://www.w3.org/TR/2001/REC-SVG-20010904/DTD/svg10.dtd">
<svg version="1.0" xmlns="http://www.w3.org/2000/svg"
 width="225.000000pt" height="225.000000pt" viewBox="0 0 225.000000 225.000000"
 preserveAspectRatio="xMidYMid meet">

<g transform="translate(0.000000,225.000000) scale(0.100000,-0.100000)"
fill="#000000" stroke="none">
<path d="M1150 1655 l0 -125 53 -93 52 -92 3 175 3 175 -38 33 c-76 66 -73 68
-73 -73z"/>
<path d="M905 1380 l-150 -88 -11 -71 c-6 -39 -10 -71 -9 -71 1 0 51 28 110
63 l107 62 54 94 c30 51 53 95 52 96 -2 1 -70 -37 -153 -85z"/>
<path d="M1075 1222 c17 -10 87 -51 157 -91 l128 -73 57 22 c32 13 61 26 65
29 4 3 -42 34 -102 69 l-110 62 -112 0 -113 0 30 -18z"/>
<path d="M410 780 c0 -79 0 -80 25 -80 20 0 25 5 25 25 0 25 1 25 83 25 102 0
120 10 115 65 l-3 40 -122 3 -123 3 0 -81z m195 30 c0 -24 -3 -25 -72 -28
l-73 -3 0 31 0 31 73 -3 c69 -3 72 -4 72 -28z"/>
<path d="M710 780 l0 -80 30 0 30 0 0 70 0 71 73 -3 c69 -3 72 -4 72 -28 0
-23 -4 -25 -57 -28 -32 -2 -58 -6 -58 -10 1 -17 102 -72 132 -72 l33 0 -34 22
-34 22 28 8 c33 8 45 23 45 59 0 44 -15 49 -142 49 l-118 0 0 -80z"/>
<path d="M1030 780 c0 -79 0 -80 25 -80 24 0 25 2 25 70 l0 71 73 -3 c70 -3
72 -4 75 -30 3 -27 2 -27 -60 -30 -81 -4 -82 -22 0 -26 58 -3 62 -4 62 -27 0
-20 5 -25 25 -25 26 0 26 0 23 78 l-3 77 -122 3 -123 3 0 -81z"/>
<path d="M1330 850 c0 -5 20 -10 45 -10 l45 0 0 -70 c0 -68 1 -70 25 -70 24 0
25 2 25 70 l0 70 45 0 c25 0 45 5 45 10 0 6 -45 10 -115 10 -70 0 -115 -4
-115 -10z"/>
<path d="M1610 850 c0 -5 20 -10 45 -10 l45 0 0 -70 c0 -68 1 -70 25 -70 24 0
25 2 25 70 l0 70 45 0 c25 0 45 5 45 10 0 6 -45 10 -115 10 -70 0 -115 -4
-115 -10z"/>
<path d="M410 546 c0 -85 0 -86 25 -86 24 0 25 2 25 70 l0 70 35 0 35 0 0 -70
c0 -63 2 -70 20 -70 18 0 20 7 20 70 l0 70 34 0 c40 0 46 -11 46 -86 0 -52 1
-54 26 -54 l26 0 -4 74 c-2 41 -7 78 -11 83 -5 4 -69 9 -143 11 l-134 4 0 -86z"/>
<path d="M767 623 c-4 -3 -7 -42 -7 -85 l0 -78 30 0 30 0 0 85 c0 82 -1 85
-23 85 -13 0 -27 -3 -30 -7z"/>
<path d="M882 554 c2 -52 8 -78 18 -84 8 -5 45 -10 83 -10 53 0 67 3 67 15 0
11 -13 15 -54 15 -62 0 -66 5 -66 86 0 52 -1 54 -26 54 l-26 0 4 -76z"/>
<path d="M1100 561 c0 -91 10 -101 102 -101 86 0 91 22 7 30 l-54 5 -3 68 c-3
64 -4 67 -27 67 -24 0 -25 -2 -25 -69z"/>
<path d="M1320 545 l0 -85 101 0 c76 0 100 3 97 13 -3 8 -30 13 -76 15 -64 3
-72 5 -72 22 0 18 7 20 75 20 60 0 75 3 75 15 0 12 -15 15 -75 15 -68 0 -75 2
-75 20 0 18 7 20 75 20 60 0 75 3 75 15 0 12 -18 15 -100 15 l-100 0 0 -85z"/>
<path d="M1580 545 c0 -84 0 -85 25 -85 24 0 25 2 25 70 l0 71 73 -3 c69 -3
72 -4 72 -28 0 -23 -4 -25 -59 -30 l-60 -5 57 -37 c36 -25 68 -38 89 -38 l33
0 -40 27 -40 28 35 5 c33 5 35 8 38 45 5 58 -11 65 -140 65 l-108 0 0 -85z"/>
</g>
</svg>
