<svg version="1.1" id="Layer_1" xmlns="http://www.w3.org/2000/svg" xmlns:xlink="http://www.w3.org/1999/xlink" x="0px" y="0px"
	 width="100%" viewBox="0 0 1800 2578" enable-background="new 0 0 1800 2578" xml:space="preserve">
<path fill="#FEFEFE" opacity="1.000000" stroke="none" 
	d="
M1802.000000,1078.000000 
	C1802.000000,1578.442749 1802.000000,2078.885498 1802.000000,2580.000000 
	C1653.291138,2580.000000 1504.581177,2580.000000 1355.261475,2579.394287 
	C1364.470093,2574.615479 1368.994873,2568.236816 1368.883423,2556.543213 
	C1368.273193,2492.606934 1368.593140,2428.661865 1368.593384,2364.719971 
	C1368.593384,2361.216064 1368.593384,2357.712158 1368.593384,2353.621826 
	C1382.380005,2353.621826 1394.681030,2353.795654 1406.970947,2353.500488 
	C1410.068726,2353.426025 1413.741333,2352.643555 1416.101196,2350.825439 
	C1425.442383,2343.629639 1428.055176,2325.841064 1421.374512,2316.184082 
	C1417.437988,2310.493896 1412.298706,2306.923096 1404.716919,2306.957520 
	C1363.088867,2307.146240 1321.458984,2307.170166 1279.831177,2306.963623 
	C1270.788818,2306.918701 1265.455566,2311.454102 1262.178955,2319.011475 
	C1257.997681,2328.655518 1259.715454,2337.895020 1265.229004,2346.565430 
	C1268.649170,2351.943848 1272.956299,2355.058105 1280.010132,2354.612793 
	C1289.961548,2353.984131 1299.982300,2354.405029 1309.972656,2354.475098 
	C1312.868774,2354.495117 1315.762451,2354.850342 1319.645142,2355.120605 
	C1319.645142,2359.342041 1319.645142,2362.914062 1319.645142,2366.485840 
	C1319.644897,2431.093750 1319.832520,2495.703125 1319.423584,2560.308350 
	C1319.368042,2569.065186 1322.445801,2574.125488 1329.871338,2577.490723 
	C1331.327515,2578.150635 1332.627808,2579.154785 1334.000000,2580.000000 
	C1276.623779,2580.000000 1219.247559,2580.000000 1161.319824,2579.361328 
	C1167.715210,2576.454346 1174.970093,2574.851318 1181.554932,2571.801270 
	C1208.321411,2559.403076 1224.167725,2537.435059 1233.679688,2510.335205 
	C1235.419312,2505.378906 1237.016479,2500.035645 1237.037720,2494.864258 
	C1237.275024,2437.204834 1237.268066,2379.543701 1237.022095,2321.884277 
	C1237.005005,2317.863525 1235.447876,2313.217285 1233.090210,2309.958984 
	C1226.398193,2300.710449 1200.691895,2300.147705 1192.834839,2308.445068 
	C1189.181763,2312.302979 1189.528320,2316.937500 1189.528198,2321.585693 
	C1189.525879,2376.246582 1189.413940,2430.907715 1189.637207,2485.567627 
	C1189.677979,2495.546631 1186.306396,2503.770752 1179.992554,2511.051270 
	C1173.552002,2518.477539 1165.670776,2524.045166 1156.551636,2527.642822 
	C1123.836548,2540.549561 1095.959473,2523.878418 1083.321899,2491.849854 
	C1082.501221,2489.770020 1082.546387,2487.280518 1082.498413,2484.975098 
	C1082.249512,2472.987793 1081.992554,2460.998535 1081.937012,2449.009277 
	C1081.748535,2408.354248 1081.647705,2367.698486 1081.498413,2327.043213 
	C1081.487427,2324.046875 1081.592041,2321.022461 1081.236938,2318.059814 
	C1080.088989,2308.483154 1075.075317,2303.718750 1065.571411,2303.308838 
	C1060.921509,2303.108154 1056.247070,2303.361084 1051.587402,2303.518066 
	C1037.450928,2303.994141 1031.662109,2309.962158 1031.787842,2324.881104 
	C1032.231323,2377.538574 1032.191284,2430.203369 1031.800659,2482.861572 
	C1031.700439,2496.367920 1035.059082,2508.567627 1041.366943,2520.107178 
	C1056.875854,2548.478760 1080.885620,2566.314941 1111.409912,2575.971680 
	C1114.398926,2576.917236 1117.142456,2578.638672 1120.000000,2580.000000 
	C1056.623779,2580.000000 993.247620,2580.000000 928.945984,2579.445312 
	C928.060059,2578.154785 928.099487,2577.419189 928.800049,2576.354980 
	C939.115540,2573.183838 942.811462,2566.963623 942.760193,2556.725342 
	C942.438232,2492.423584 942.592834,2428.119629 942.589844,2363.816406 
	C942.589661,2360.239990 942.589783,2356.663818 942.589783,2352.544189 
	C946.554626,2352.324219 949.455444,2352.041992 952.357849,2352.024414 
	C962.019592,2351.965820 971.691101,2352.237549 981.338745,2351.864502 
	C984.414673,2351.745850 988.041687,2350.766602 990.360962,2348.882080 
	C999.060486,2341.814209 1001.982666,2326.762451 996.765808,2316.874268 
	C993.186707,2310.090576 988.056519,2305.185303 979.603760,2305.193848 
	C937.290283,2305.236328 894.976746,2305.253906 852.663391,2305.174561 
	C846.330322,2305.162842 841.746094,2308.047852 838.492126,2313.034912 
	C832.501343,2322.217285 832.724976,2331.846436 837.271973,2341.553955 
	C841.577637,2350.746338 848.479065,2354.489502 858.897766,2353.682861 
	C870.042480,2352.819580 881.305786,2353.488525 892.963135,2353.488525 
	C893.117065,2356.912598 893.302185,2359.181396 893.307312,2361.450684 
	C893.336121,2374.111328 893.321594,2386.772217 893.321411,2399.432861 
	C893.320740,2452.407959 893.544434,2505.385010 893.097717,2558.356201 
	C893.023315,2567.179688 896.378662,2572.138184 903.697388,2575.537598 
	C905.195374,2576.233398 906.670166,2576.979004 908.114014,2578.275879 
	C908.048279,2579.233398 908.024170,2579.616699 908.000000,2580.000000 
	C815.290466,2580.000000 722.580933,2580.000000 628.923523,2579.437988 
	C627.952515,2578.502197 627.929321,2578.128174 628.516479,2577.400879 
	C643.814697,2572.116455 646.712402,2568.248535 646.713501,2553.509033 
	C646.718262,2489.870117 646.711792,2426.231201 646.737549,2362.592285 
	C646.738953,2359.093018 646.993835,2355.593750 647.149170,2351.622070 
	C660.275635,2351.622070 672.247009,2351.404541 684.204102,2351.722656 
	C689.437073,2351.861816 693.183838,2349.884521 696.282898,2346.063477 
	C702.856689,2337.958496 704.709473,2328.763916 701.809631,2318.837158 
	C699.337341,2310.374023 691.893188,2304.633057 683.453735,2304.615723 
	C641.139038,2304.529053 598.823975,2304.536865 556.509521,2304.668945 
	C553.644165,2304.677979 550.456238,2305.399170 547.979248,2306.788574 
	C539.583191,2311.499023 535.786011,2324.188965 539.050354,2335.198730 
	C542.661804,2347.379150 548.429016,2351.995605 560.051880,2351.999023 
	C571.960083,2352.002441 583.868347,2351.999756 596.974854,2351.999756 
	C596.974854,2356.921875 596.975159,2360.821533 596.974731,2364.720947 
	C596.967957,2429.026123 597.109985,2493.332275 596.779785,2557.635742 
	C596.734802,2566.393799 600.313599,2571.400391 607.686768,2574.631836 
	C610.419617,2575.829834 613.263550,2576.773926 616.029297,2578.375000 
	C616.001160,2579.277588 616.000549,2579.638916 616.000000,2580.000000 
	C411.475464,2580.000000 206.950912,2580.000000 2.000000,2580.000000 
	C2.000000,2366.624023 2.000000,2153.247559 2.906876,1938.677979 
	C9.146740,1937.445190 14.479725,1937.371460 19.812714,1937.371216 
	C160.476028,1937.365234 301.139343,1937.368774 441.802673,1937.354858 
	C445.647186,1937.354492 449.491699,1937.178955 453.792969,1937.073975 
	C453.792969,1932.412231 453.792969,1929.098267 453.792938,1925.784424 
	C453.792511,1535.127075 453.881439,1144.469604 453.596008,753.812439 
	C453.576416,727.001526 458.459412,701.498962 467.399414,676.578796 
	C485.000916,627.514771 514.477600,586.455017 553.243469,552.013245 
	C619.185181,493.426880 696.702515,460.971619 784.129944,452.619415 
	C820.356445,449.158630 856.613647,451.379089 892.283630,459.899445 
	C958.816040,475.791809 1013.856384,509.722748 1055.948120,563.925720 
	C1091.838745,610.143433 1112.464478,663.151489 1124.319092,719.923828 
	C1134.174683,767.121887 1137.202026,814.912109 1136.193970,863.025940 
	C1136.120361,866.537964 1136.184326,870.052856 1136.184326,874.028381 
	C1141.574707,874.028381 1145.615112,873.584534 1149.520020,874.123169 
	C1157.045044,875.161255 1161.501587,872.029724 1165.952271,865.959473 
	C1188.735840,834.884216 1214.807007,806.919067 1246.695557,784.881592 
	C1297.619507,749.689087 1352.895874,738.395874 1412.771362,756.463928 
	C1455.444214,769.340942 1491.375000,793.698364 1523.032104,824.669434 
	C1539.271240,840.556580 1553.585327,858.005615 1564.787598,877.178467 
	C1571.734375,877.178467 1577.911743,877.178467 1584.216064,877.178467 
	C1584.687744,874.624268 1585.116455,872.687256 1585.385132,870.728333 
	C1585.610596,869.084167 1585.739380,867.415527 1585.758301,865.755981 
	C1586.268799,821.122986 1586.786865,776.528381 1582.493042,731.967896 
	C1578.043823,685.793518 1571.029419,640.111572 1559.792358,595.116455 
	C1523.941772,451.564056 1455.756836,326.234497 1349.240845,222.626160 
	C1292.150391,167.094223 1227.452881,122.363731 1155.935059,87.459763 
	C1092.451782,56.477020 1025.914673,34.493912 956.687256,20.625412 
	C923.396179,13.956123 889.870239,8.816542 855.681274,5.868168 
	C854.246033,5.679862 853.120605,5.822042 851.188965,5.819961 
	C844.247742,5.207894 838.112610,4.740090 831.796509,3.702365 
	C831.743652,2.754962 831.871826,2.377481 832.000000,2.000000 
	C1155.195312,2.000000 1478.390625,2.000000 1802.000000,2.000000 
	C1802.000000,358.709442 1802.000000,715.419067 1801.092041,1072.809814 
	C1721.870728,1073.463745 1643.557373,1073.510132 1565.244873,1073.263550 
	C1559.267334,1073.244629 1556.469116,1075.394531 1553.897949,1080.491455 
	C1538.791992,1110.437256 1520.167480,1137.920776 1495.571777,1161.010620 
	C1447.211060,1206.410522 1389.942871,1222.398926 1325.139160,1211.057861 
	C1276.024780,1202.462402 1233.254272,1180.230103 1196.475342,1146.673462 
	C1174.279785,1126.422363 1155.995605,1103.372681 1147.459473,1073.833862 
	C1147.112915,1072.634521 1146.120850,1071.621826 1145.534790,1070.689453 
	C1114.831543,1068.717285 923.560608,1069.676758 915.857117,1071.818237 
	C915.720520,1072.122192 915.445374,1072.438599 915.471191,1072.728149 
	C915.588196,1074.037964 915.737061,1075.349854 915.969177,1076.644043 
	C939.895569,1210.065063 1009.748169,1312.521851 1124.152222,1384.744385 
	C1130.289429,1388.618896 1132.528564,1392.522339 1132.442017,1399.740967 
	C1131.581299,1471.350220 1130.996216,1542.963501 1130.561035,1614.576904 
	C1130.289795,1659.226807 1130.593384,1703.880371 1130.308594,1748.530151 
	C1129.924194,1808.815430 1129.211426,1869.098511 1128.695435,1929.383179 
	C1128.674072,1931.885620 1129.221313,1934.392944 1129.483398,1936.719116 
	C1154.719116,1938.948608 1570.475098,1937.879272 1578.309570,1935.429810 
	C1578.309570,1753.802002 1578.309570,1571.954590 1578.309570,1390.201172 
	C1580.545776,1388.838623 1582.198120,1387.748779 1583.924194,1386.792114 
	C1618.034912,1367.889404 1647.960571,1343.705933 1674.506470,1315.218872 
	C1713.310913,1273.576660 1742.402954,1225.643188 1765.865356,1174.093994 
	C1780.069458,1142.886108 1791.949585,1110.781372 1802.000000,1078.000000 
M1325.926392,798.445251 
	C1324.952026,798.669312 1323.987305,798.955383 1323.001953,799.108643 
	C1241.693359,811.756470 1174.120361,876.629883 1163.584839,960.002563 
	C1155.799316,1021.613281 1174.036743,1075.247070 1218.736694,1117.952026 
	C1272.318237,1169.142212 1336.885498,1184.461914 1408.239380,1165.937744 
	C1501.025146,1141.849731 1559.691528,1054.182861 1547.915649,960.101562 
	C1538.740601,886.798706 1481.765503,822.721802 1408.814209,803.441650 
	C1382.077271,796.375427 1355.077271,794.327576 1325.926392,798.445251 
M206.265335,2162.468506 
	C228.997452,2226.050049 294.248596,2265.693359 364.368652,2254.362061 
	C441.030273,2241.973633 494.324677,2166.547119 479.414795,2089.802490 
	C463.831940,2009.593872 383.300537,1959.796875 302.935638,1980.675659 
	C224.701569,2001.000977 180.317474,2083.451416 206.265335,2162.468506 
M820.253479,2257.088867 
	C828.154053,2256.041504 836.179016,2255.561035 843.935852,2253.858643 
	C915.181152,2238.220215 964.139343,2171.962646 953.413025,2097.078613 
	C943.373718,2026.991333 883.947388,1976.344482 813.082581,1977.028564 
	C756.637573,1977.573364 713.568420,2003.163330 687.537598,2053.058350 
	C661.796387,2102.398193 665.585999,2151.900146 697.572754,2197.497070 
	C726.606689,2238.884766 767.929504,2257.935059 820.253479,2257.088867 
M206.750000,2358.195068 
	C198.286743,2343.473633 189.977783,2328.660645 181.307571,2314.062012 
	C175.245163,2303.854248 166.512848,2297.925537 154.047089,2299.335449 
	C140.005417,2300.923828 128.858658,2313.596680 128.849304,2328.001709 
	C128.823547,2367.649658 128.843765,2407.297363 128.844116,2446.945312 
	C128.844421,2482.594971 128.798294,2518.244629 128.869751,2553.894287 
	C128.889969,2563.980957 133.315872,2568.589355 143.195038,2569.049561 
	C147.849365,2569.266357 152.525040,2569.190430 157.185974,2569.062500 
	C164.578201,2568.859619 170.142029,2564.685791 171.678284,2557.814209 
	C172.319992,2554.944336 172.063828,2551.853760 172.065033,2548.863525 
	C172.085510,2497.887695 172.073730,2446.912109 172.108887,2395.936279 
	C172.110718,2393.292480 172.468994,2390.648926 172.661331,2388.005127 
	C176.213699,2390.665039 178.018311,2393.396484 179.655960,2396.224609 
	C204.017166,2438.294434 228.351440,2480.379883 252.703369,2522.455322 
	C260.040771,2535.132812 267.115173,2547.975586 274.843597,2560.410889 
	C284.522278,2575.983887 303.884003,2579.700684 317.037354,2568.566406 
	C324.929108,2561.885986 329.657867,2553.348633 329.648438,2542.525146 
	C329.584656,2469.226562 329.636322,2395.928223 329.591003,2322.629639 
	C329.584381,2311.937256 323.113098,2305.484863 312.314819,2305.132568 
	C307.988007,2304.991211 303.652985,2305.090088 299.321747,2305.099365 
	C287.876190,2305.123779 284.749512,2307.812256 283.250793,2319.249268 
	C282.906921,2321.873291 283.095337,2324.571777 283.094757,2327.235840 
	C283.083557,2378.544434 283.088135,2429.852783 283.042755,2481.161377 
	C283.041290,2482.818359 282.546021,2484.474609 282.280945,2486.131348 
	C281.715729,2486.221191 281.150513,2486.311035 280.585297,2486.401123 
	C256.233704,2444.079834 231.882141,2401.758789 206.750000,2358.195068 
M647.549805,2049.988037 
	C643.897522,2025.057739 631.073730,2006.118042 609.899536,1992.757202 
	C602.751892,1988.247192 595.053284,1985.976440 586.309631,1986.177856 
	C567.010132,1986.622803 547.693054,1986.255493 528.383606,1986.334961 
	C511.096375,1986.406006 499.590851,1997.841187 499.581299,2015.000000 
	C499.542938,2083.915771 499.646149,2152.832031 499.457245,2221.747314 
	C499.432861,2230.641602 503.182617,2237.812012 507.625488,2244.822021 
	C508.933563,2246.885986 511.473663,2248.863770 513.806519,2249.444336 
	C519.226746,2250.792480 524.856445,2251.907715 530.415771,2251.979248 
	C552.052429,2252.257324 573.696289,2252.225830 595.333618,2251.975098 
	C599.511719,2251.926758 604.013184,2251.121826 607.784851,2249.396484 
	C628.973389,2239.704590 645.651489,2224.720703 657.225952,2204.505615 
	C674.901550,2173.634766 671.195923,2141.604248 646.885925,2115.302002 
	C640.694397,2108.602783 633.320435,2102.996338 626.843628,2097.204346 
	C642.232422,2086.180908 648.442932,2070.577148 647.549805,2049.988037 
M899.626160,1745.000000 
	C899.626038,1721.344604 899.631714,1697.689087 899.623352,1674.033691 
	C899.619263,1662.470703 896.915344,1659.304688 885.560669,1656.031616 
	C877.480042,1653.702271 869.844482,1654.343750 862.239502,1657.675903 
	C855.840942,1660.479614 852.725281,1664.493530 852.879700,1672.222290 
	C853.411865,1698.865601 853.101807,1725.526001 853.071838,1752.179810 
	C853.069336,1754.392334 852.760742,1756.604614 852.570190,1759.138184 
	C820.173584,1759.138184 788.333496,1759.138184 755.349792,1759.138184 
	C755.349792,1755.466919 755.349548,1752.241455 755.349854,1749.015869 
	C755.351990,1724.027832 755.352722,1699.039917 755.357117,1674.051880 
	C755.359314,1661.479858 753.428711,1658.810059 741.382141,1654.911499 
	C733.274536,1652.287598 725.147095,1651.598755 716.867004,1654.339478 
	C707.274780,1657.514404 704.816528,1660.711548 704.815308,1670.941162 
	C704.805603,1748.903687 704.987122,1826.867188 704.588135,1904.827759 
	C704.538147,1914.595337 708.704895,1919.993652 716.755005,1922.928467 
	C721.928101,1924.814331 727.729248,1925.959595 733.209656,1925.826294 
	C746.701538,1925.498047 753.492493,1917.915649 753.492371,1904.512573 
	C753.492249,1876.526001 753.492249,1848.539551 753.492188,1820.552979 
	C753.492188,1816.985962 753.492188,1813.418945 753.492188,1810.023315 
	C768.861450,1807.904541 846.914124,1808.588135 854.406067,1810.937500 
	C854.406067,1814.014771 854.406128,1817.301758 854.406128,1820.588745 
	C854.405945,1847.908936 854.877319,1875.241699 854.146851,1902.542358 
	C853.894775,1911.963501 857.611877,1917.132324 865.600830,1919.755249 
	C870.552368,1921.380981 875.967468,1922.416382 881.154297,1922.340332 
	C893.725037,1922.156006 899.619568,1915.606323 899.622070,1902.925049 
	C899.632324,1850.950073 899.626160,1798.974976 899.626160,1745.000000 
M121.740761,1980.878296 
	C120.130547,1980.453491 118.517090,1979.647949 116.910622,1979.661621 
	C96.654594,1979.833984 76.317947,1979.115234 56.173424,1980.744629 
	C43.070206,1981.804565 29.949009,1997.960327 29.941765,2009.615601 
	C29.896002,2083.246582 30.012941,2156.877686 29.757267,2230.508057 
	C29.734600,2237.035889 32.365982,2240.449463 37.724949,2242.691406 
	C49.447899,2247.595947 61.120850,2246.556641 72.752464,2242.260254 
	C77.741745,2240.417236 78.366867,2236.542725 78.325897,2231.831299 
	C78.160751,2212.841797 78.257057,2193.850098 78.256897,2174.859375 
	C78.256790,2162.229004 78.256874,2149.598633 78.256874,2137.943848 
	C90.049232,2137.943848 101.219963,2137.944092 112.390694,2137.944092 
	C133.393570,2137.944336 137.645676,2142.117432 137.645981,2162.749512 
	C137.646301,2184.072510 137.634125,2205.395508 137.638580,2226.718506 
	C137.641144,2238.979004 140.182022,2242.548828 152.460724,2244.980713 
	C157.887955,2246.055664 163.738297,2246.160645 169.234543,2245.450928 
	C177.728714,2244.354004 179.968689,2241.343750 179.985855,2232.898682 
	C180.048798,2201.913574 179.882187,2170.927979 180.079559,2139.944092 
	C180.151169,2128.702881 175.712265,2120.040771 167.068970,2113.215576 
	C164.845490,2111.459961 162.728149,2109.569824 161.301224,2108.365234 
	C165.071091,2103.343262 169.013870,2099.515381 171.253403,2094.866699 
	C182.376160,2071.779053 183.698166,2048.016846 173.350937,2024.401489 
	C163.645721,2002.250977 145.352600,1989.468384 121.740761,1980.878296 
M1548.406494,2026.203857 
	C1548.772339,2018.898804 1549.199219,2011.596191 1549.485474,2004.287964 
	C1549.734497,1997.930176 1547.407959,1993.401123 1540.698242,1991.689209 
	C1535.559326,1990.378174 1530.625732,1988.219360 1525.461304,1987.058716 
	C1497.815308,1980.845581 1470.609253,1981.479736 1444.420166,1993.453003 
	C1411.238525,2008.622803 1394.946045,2041.291626 1401.271362,2077.158936 
	C1408.117798,2115.981445 1441.290527,2139.476318 1475.967773,2142.011719 
	C1484.448364,2142.631592 1492.959839,2145.109131 1501.069946,2147.870117 
	C1509.050903,2150.586914 1515.565308,2155.952393 1520.264526,2163.190918 
	C1527.779907,2174.766846 1526.458618,2188.087402 1516.686157,2197.808105 
	C1506.066528,2208.371582 1492.543701,2211.338867 1478.276978,2211.866699 
	C1471.317749,2212.124268 1464.296387,2211.161621 1457.366577,2211.651123 
	C1443.337769,2212.641846 1431.172729,2208.251953 1419.990723,2200.247070 
	C1417.851196,2198.715332 1415.597656,2197.342529 1413.457764,2195.936523 
	C1405.359131,2198.352783 1401.774048,2203.279053 1402.292358,2211.565430 
	C1402.707397,2218.200684 1402.585083,2224.889893 1402.319580,2231.540283 
	C1402.101074,2237.012939 1404.060303,2241.575928 1408.158081,2244.684814 
	C1412.035400,2247.626465 1416.424561,2250.481201 1421.036987,2251.774170 
	C1460.549316,2262.849854 1498.808838,2258.198242 1535.696045,2241.160156 
	C1541.572510,2238.445801 1547.667603,2234.394287 1551.476440,2229.320557 
	C1570.166870,2204.423096 1576.850708,2176.714844 1566.838135,2146.515625 
	C1560.762695,2128.191406 1546.834473,2116.805664 1529.229370,2110.341553 
	C1512.378662,2104.154541 1495.091187,2099.160889 1478.023193,2093.559082 
	C1472.654053,2091.796875 1467.284790,2089.976318 1462.075562,2087.800049 
	C1455.531128,2085.065674 1451.177856,2080.273438 1449.943726,2073.053955 
	C1449.215088,2068.792480 1448.157959,2064.548828 1447.873047,2060.256104 
	C1446.703125,2042.627686 1456.733398,2029.956177 1474.128296,2027.092896 
	C1478.366943,2026.395020 1482.742676,2026.182129 1487.043945,2026.274414 
	C1503.091919,2026.618530 1518.862671,2028.643921 1534.191528,2033.816895 
	C1542.404297,2036.588501 1544.041748,2035.575073 1548.406494,2026.203857 
M417.111877,2573.339111 
	C437.300781,2573.808838 456.713226,2569.952393 476.093567,2564.378174 
	C505.167053,2556.016846 519.911560,2535.926025 525.885071,2507.717529 
	C526.298279,2505.766113 526.391174,2503.748047 526.775208,2501.789062 
	C532.904480,2470.521240 520.255066,2438.339111 484.168182,2425.624512 
	C470.372040,2420.763672 456.365906,2416.500977 442.476471,2411.902100 
	C434.596069,2409.292725 426.467926,2407.167725 419.014343,2403.635986 
	C414.815918,2401.646729 409.909058,2397.846924 408.588928,2393.797607 
	C406.068420,2386.066650 404.478302,2377.473145 405.051239,2369.419189 
	C405.987396,2356.259521 413.859222,2347.406982 426.918549,2344.021240 
	C431.056763,2342.948486 435.414520,2342.393555 439.693451,2342.250244 
	C457.844391,2341.643066 475.424408,2344.854004 492.675079,2350.396240 
	C500.019226,2352.755859 505.200867,2349.260498 505.695374,2341.651611 
	C506.191620,2334.015625 506.025330,2326.336914 506.156219,2318.676758 
	C506.246094,2313.417969 504.074493,2310.046631 498.859192,2308.166748 
	C466.566895,2296.525635 434.201080,2295.168701 402.399445,2309.016602 
	C372.608368,2321.988770 357.121155,2345.549316 357.066559,2378.077881 
	C357.011993,2410.598877 371.647675,2434.862305 401.045746,2449.536621 
	C411.886169,2454.947754 423.498993,2457.613281 435.656647,2458.276611 
	C448.972137,2459.002441 461.168335,2463.195557 471.170380,2472.307861 
	C486.959564,2486.692627 485.411163,2507.247314 467.539154,2518.754150 
	C456.915680,2525.593994 445.014893,2528.362305 432.343140,2527.820557 
	C427.048737,2527.594238 421.710114,2527.296875 416.444824,2527.709961 
	C403.341827,2528.738770 391.325409,2525.928223 380.358704,2518.658203 
	C376.806824,2516.303711 373.216644,2514.006592 369.943604,2511.878174 
	C359.630951,2517.485107 359.081665,2518.684326 359.747864,2529.339600 
	C360.079956,2534.651123 359.895111,2539.996338 359.911743,2545.326172 
	C359.950043,2557.623535 364.090240,2563.504639 375.874359,2567.289307 
	C388.649292,2571.391846 401.784180,2573.400635 417.111877,2573.339111 
M1444.441895,2510.983887 
	C1444.441406,2517.645020 1444.648193,2524.313965 1444.392578,2530.965088 
	C1443.989868,2541.444580 1447.783325,2550.601318 1453.316040,2559.034912 
	C1458.533203,2566.987305 1466.261230,2571.808350 1475.859863,2571.894775 
	C1505.498901,2572.161621 1535.141724,2571.947998 1564.782715,2572.052490 
	C1568.603271,2572.065918 1571.208252,2570.925781 1572.446655,2567.208740 
	C1575.874634,2556.920654 1577.519775,2546.531738 1574.027710,2535.909912 
	C1571.490356,2528.191650 1568.449585,2525.971924 1560.229858,2525.947754 
	C1543.244507,2525.897949 1526.258789,2525.977539 1509.273560,2525.914795 
	C1498.860352,2525.876465 1495.869507,2522.791748 1495.807983,2512.144775 
	C1495.746460,2501.487549 1495.791992,2490.829590 1495.791138,2480.172119 
	C1495.790649,2473.950928 1495.791016,2467.729736 1495.791016,2460.536865 
	C1500.233154,2460.536865 1503.481689,2460.537109 1506.730347,2460.536865 
	C1521.384521,2460.536133 1536.038574,2460.543701 1550.692749,2460.532471 
	C1563.579834,2460.522461 1569.428589,2456.164062 1570.114990,2443.414062 
	C1570.491821,2436.414551 1568.505371,2428.957520 1566.085327,2422.247559 
	C1564.286621,2417.260254 1560.020996,2414.790771 1553.397095,2415.154053 
	C1537.458008,2416.027100 1521.438477,2415.337646 1505.455566,2415.569092 
	C1501.240723,2415.629883 1498.142456,2414.234619 1496.579712,2410.590088 
	C1495.047607,2407.016113 1493.420288,2403.123047 1493.358398,2399.344727 
	C1493.145630,2386.376465 1493.334839,2373.385986 1493.887939,2360.426025 
	C1494.316284,2350.386719 1496.803711,2348.238037 1506.566528,2348.186768 
	C1522.885376,2348.101074 1539.205322,2348.204834 1555.524536,2348.151367 
	C1570.327881,2348.102783 1578.646484,2337.722168 1575.572021,2323.080322 
	C1574.961426,2320.171875 1573.870117,2317.351562 1572.850586,2314.544922 
	C1570.447510,2307.929688 1566.402466,2304.770020 1558.631592,2304.924561 
	C1532.996948,2305.435059 1507.345459,2305.041504 1481.701538,2305.185303 
	C1476.754883,2305.213135 1471.795776,2305.971191 1466.872192,2306.619141 
	C1451.194092,2308.682861 1444.137207,2319.257080 1444.254272,2334.140137 
	C1444.712769,2392.419922 1444.441895,2450.705566 1444.441895,2510.983887 
M948.174377,1916.705078 
	C954.228333,1925.165894 962.810181,1929.492065 972.858521,1929.616699 
	C1001.508972,1929.972656 1030.167480,1929.635498 1058.821167,1929.826904 
	C1063.637207,1929.859253 1066.195190,1928.077393 1067.724854,1923.712158 
	C1070.893799,1914.668945 1071.535156,1905.273926 1069.565796,1896.161743 
	C1067.688477,1887.475098 1064.688232,1882.180786 1053.227295,1882.688599 
	C1036.599976,1883.425171 1019.915405,1882.963501 1003.256348,1882.851440 
	C993.564270,1882.786133 990.052917,1879.314575 989.952087,1869.610596 
	C989.803284,1855.284546 989.848816,1840.955688 989.939148,1826.628662 
	C989.992920,1818.097534 990.367249,1817.706299 999.089600,1817.654419 
	C1015.748840,1817.555176 1032.409424,1817.669434 1049.068848,1817.599854 
	C1056.947266,1817.567017 1063.336426,1813.475220 1064.006104,1806.051025 
	C1064.708252,1798.269775 1064.142334,1790.077393 1062.407349,1782.457153 
	C1060.706909,1774.987915 1055.462524,1772.475952 1047.458252,1772.505981 
	C1033.130981,1772.559692 1018.803345,1772.567749 1004.475952,1772.533936 
	C992.532593,1772.505737 988.002930,1767.819214 987.972534,1755.484009 
	C987.944580,1744.156128 987.971863,1732.827759 988.013123,1721.499878 
	C988.063293,1707.727051 989.953125,1705.804443 1003.519958,1705.782104 
	C1019.513306,1705.755737 1035.507690,1705.879272 1051.499878,1705.741089 
	C1061.330200,1705.656128 1068.349731,1700.741699 1069.780640,1692.091675 
	C1070.628418,1686.967163 1070.524902,1681.320312 1069.291138,1676.290527 
	C1066.513672,1664.967163 1063.034180,1662.820312 1050.944702,1662.817261 
	C1026.288086,1662.811157 1001.631348,1662.768921 976.975098,1662.853271 
	C972.331665,1662.869141 967.655884,1663.145508 963.053406,1663.747925 
	C946.037476,1665.975586 939.121277,1676.182739 939.241394,1691.171387 
	C939.759338,1755.807373 939.610413,1820.450562 939.321350,1885.089478 
	C939.271790,1896.180054 941.757935,1906.101685 948.174377,1916.705078 
M1262.140259,2013.110596 
	C1224.052734,2048.153564 1207.912964,2091.537598 1214.973267,2142.664551 
	C1220.690796,2184.067627 1243.038208,2214.663086 1280.156372,2234.103516 
	C1308.997437,2249.208496 1340.154297,2253.111816 1372.196655,2252.553711 
	C1377.268799,2252.465576 1380.894165,2250.026123 1382.164062,2245.737305 
	C1383.722534,2240.473877 1385.048218,2234.639404 1384.374390,2229.317871 
	C1382.750732,2216.498047 1378.712280,2212.968994 1365.885986,2212.986572 
	C1323.000977,2213.045410 1291.168457,2193.076904 1272.448120,2154.395020 
	C1252.280640,2112.723145 1263.038086,2058.064209 1322.085815,2039.324097 
	C1336.148560,2034.861084 1350.604736,2032.351074 1365.363159,2032.895386 
	C1372.708252,2033.166382 1377.417480,2030.075195 1380.889404,2024.190063 
	C1387.225220,2013.450684 1386.149292,2002.505249 1381.476196,1991.592285 
	C1379.750610,1987.562866 1376.222778,1985.656494 1371.979492,1985.233521 
	C1362.385010,1984.277222 1352.741455,1982.381958 1343.185913,1982.730713 
	C1313.446411,1983.816650 1286.346436,1992.810791 1262.140259,2013.110596 
M527.133972,1697.892334 
	C530.034668,1701.543579 533.689026,1703.142334 538.462280,1702.896729 
	C544.445862,1702.588623 550.456848,1702.809814 556.455994,1702.807495 
	C563.645020,1702.804688 570.833984,1702.806885 578.860779,1702.806885 
	C578.860779,1708.054932 578.860840,1711.989380 578.860779,1715.923828 
	C578.860107,1778.915039 578.859436,1841.906250 578.858337,1904.897461 
	C578.858337,1906.897217 579.053467,1908.921143 578.813782,1910.892090 
	C578.108093,1916.693604 580.965149,1920.610474 585.672607,1923.098877 
	C589.444458,1925.092407 593.506592,1927.004883 597.653198,1927.724854 
	C606.515198,1929.263428 614.602356,1927.200439 622.088562,1921.686157 
	C629.394714,1916.304321 628.077332,1908.956421 628.080261,1901.762451 
	C628.105835,1838.771240 628.096069,1775.780029 628.096863,1712.788818 
	C628.096924,1709.259399 628.096924,1705.729858 628.096924,1701.488770 
	C640.497192,1701.488770 651.512878,1700.814575 662.410278,1701.662109 
	C675.577942,1702.686279 680.114197,1695.638672 683.280457,1685.859741 
	C688.916870,1668.452026 678.208862,1654.415527 659.986938,1654.411865 
	C620.325806,1654.403931 580.656006,1654.874023 541.008423,1654.140991 
	C528.221802,1653.904541 520.004639,1664.584473 519.421265,1674.327271 
	C518.919861,1682.700928 520.841064,1690.174683 527.133972,1697.892334 
M1017.891846,2257.987305 
	C1019.887451,2258.059570 1021.886292,2258.244385 1023.878113,2258.186279 
	C1039.999268,2257.715820 1047.849854,2249.593994 1047.849609,2233.459961 
	C1047.848877,2169.866211 1047.850098,2106.272461 1047.850830,2042.678711 
	C1047.850952,2039.143311 1047.850952,2035.608032 1047.850952,2031.490112 
	C1060.142944,2031.490112 1071.140991,2030.830444 1082.025879,2031.658081 
	C1095.456543,2032.679443 1099.828613,2026.199951 1103.268799,2015.176514 
	C1108.156494,1999.514771 1098.081665,1984.509644 1083.044556,1984.457275 
	C1041.759033,1984.313843 1000.472595,1984.356445 959.186890,1984.452026 
	C949.553833,1984.474365 942.095642,1990.545410 939.962585,2000.065674 
	C938.161682,2008.103394 938.940125,2015.937866 943.357788,2023.178711 
	C947.238586,2029.539673 951.968689,2033.455933 960.292725,2032.981689 
	C972.521545,2032.284790 984.819641,2032.802002 998.164795,2032.802002 
	C998.164795,2037.088989 998.164734,2040.660767 998.164856,2044.232544 
	C998.166931,2108.825195 998.350098,2173.418701 997.969727,2238.009033 
	C997.914734,2247.342285 1002.121704,2252.173828 1009.621460,2255.587646 
	C1011.724304,2256.544434 1014.017700,2257.082275 1017.891846,2257.987305 
M1189.316284,2033.002686 
	C1189.317627,2023.682373 1188.858398,2014.332275 1189.460815,2005.051025 
	C1189.976318,1997.108398 1186.433350,1992.328003 1179.685913,1989.562134 
	C1174.822144,1987.568115 1169.753296,1985.431274 1164.615723,1984.895508 
	C1156.404907,1984.039429 1149.117065,1987.440552 1142.520142,1992.313843 
	C1137.121338,1996.302124 1139.075684,2002.021606 1139.068481,2007.085815 
	C1138.961060,2082.646484 1138.992920,2158.207275 1138.991699,2233.768066 
	C1138.991699,2235.432373 1138.946411,2237.097900 1138.994629,2238.760742 
	C1139.217041,2246.445801 1140.036865,2248.650879 1147.525024,2249.944580 
	C1156.576538,2251.508789 1166.043457,2252.523193 1175.120239,2251.632568 
	C1187.419556,2250.426025 1189.313965,2247.160645 1189.314575,2234.721924 
	C1189.317871,2168.148438 1189.316040,2101.575195 1189.316284,2033.002686 
M739.684204,2317.983643 
	C739.685120,2395.217285 739.686096,2472.450928 739.686646,2549.684570 
	C739.686646,2551.681885 739.636597,2553.680664 739.688904,2555.676514 
	C739.888000,2563.267578 740.837402,2564.827148 748.118286,2567.131348 
	C757.805237,2570.196777 767.768311,2570.572754 777.652100,2568.395508 
	C788.542297,2565.996582 789.902893,2564.004395 789.904785,2552.739746 
	C789.917603,2476.171875 789.767090,2399.603516 790.117004,2323.037354 
	C790.156799,2314.318359 786.956116,2309.002441 779.533081,2306.019531 
	C774.670166,2304.065430 769.436157,2302.437256 764.254639,2301.995117 
	C752.759888,2301.014160 743.033936,2307.029541 739.684204,2317.983643 
M28.004951,2397.000000 
	C28.003754,2448.604004 27.995676,2500.208252 28.007393,2551.812256 
	C28.009630,2561.667236 28.906387,2563.848633 38.413322,2565.522461 
	C47.127918,2567.056641 56.295052,2567.517090 65.096375,2566.687012 
	C76.361900,2565.624512 78.248474,2562.537109 78.249290,2551.193359 
	C78.254509,2478.614746 78.251297,2406.036133 78.250839,2333.457520 
	C78.250801,2327.797607 78.580765,2322.110107 78.106964,2316.490234 
	C77.880547,2313.804199 76.819458,2310.515625 74.953011,2308.753662 
	C65.057747,2299.414062 48.477562,2297.614990 36.784031,2304.087891 
	C30.870178,2307.361084 27.625998,2311.461426 27.793722,2319.096680 
	C28.349279,2344.387207 28.004375,2369.697266 28.004951,2397.000000 
z"/>
<path fill="#870123" opacity="1.000000" stroke="none" 
	d="
M855.990967,6.198657 
	C889.870239,8.816542 923.396179,13.956123 956.687256,20.625412 
	C1025.914673,34.493912 1092.451782,56.477020 1155.935059,87.459763 
	C1227.452881,122.363731 1292.150391,167.094223 1349.240845,222.626160 
	C1455.756836,326.234497 1523.941772,451.564056 1559.792358,595.116455 
	C1571.029419,640.111572 1578.043823,685.793518 1582.493042,731.967896 
	C1586.786865,776.528381 1586.268799,821.122986 1585.758301,865.755981 
	C1585.739380,867.415527 1585.610596,869.084167 1585.385132,870.728333 
	C1585.116455,872.687256 1584.687744,874.624268 1584.216064,877.178467 
	C1577.911743,877.178467 1571.734375,877.178467 1564.787598,877.178467 
	C1553.585327,858.005615 1539.271240,840.556580 1523.032104,824.669434 
	C1491.375000,793.698364 1455.444214,769.340942 1412.771362,756.463928 
	C1352.895874,738.395874 1297.619507,749.689087 1246.695557,784.881592 
	C1214.807007,806.919067 1188.735840,834.884216 1165.952271,865.959473 
	C1161.501587,872.029724 1157.045044,875.161255 1149.520020,874.123169 
	C1145.615112,873.584534 1141.574707,874.028381 1136.184326,874.028381 
	C1136.184326,870.052856 1136.120361,866.537964 1136.193970,863.025940 
	C1137.202026,814.912109 1134.174683,767.121887 1124.319092,719.923828 
	C1112.464478,663.151489 1091.838745,610.143433 1055.948120,563.925720 
	C1013.856384,509.722748 958.816040,475.791809 892.283630,459.899445 
	C856.613647,451.379089 820.356445,449.158630 784.129944,452.619415 
	C696.702515,460.971619 619.185181,493.426880 553.243469,552.013245 
	C514.477600,586.455017 485.000916,627.514771 467.399414,676.578796 
	C458.459412,701.498962 453.576416,727.001526 453.596008,753.812439 
	C453.881439,1144.469604 453.792511,1535.127075 453.792938,1925.784424 
	C453.792969,1929.098267 453.792969,1932.412231 453.792969,1937.073975 
	C449.491699,1937.178955 445.647186,1937.354492 441.802673,1937.354858 
	C301.139343,1937.368774 160.476028,1937.365234 19.812714,1937.371216 
	C14.479725,1937.371460 9.146740,1937.445190 2.906876,1937.742310 
	C2.000000,1779.958252 2.000000,1621.916382 2.789507,1462.747559 
	C4.374927,1459.615356 5.862814,1457.610962 5.865004,1455.604980 
	C5.912990,1411.643799 5.796071,1367.682617 5.733564,1322.807861 
	C5.761519,1316.268311 5.799866,1310.641968 5.766009,1305.015991 
	C5.618701,1280.537842 5.450373,1256.059570 5.408813,1230.678955 
	C5.671979,1189.257446 5.744228,1148.738037 5.987998,1108.219604 
	C6.125792,1085.316284 6.668127,1062.415283 6.791274,1039.511963 
	C6.862609,1026.244751 6.463666,1012.975037 6.578376,998.838989 
	C7.121856,961.957336 7.363320,925.943115 8.026011,889.246277 
	C8.427161,879.011963 8.407084,869.460266 8.587782,859.040527 
	C9.024397,834.750793 9.260236,811.329041 9.934824,787.263672 
	C10.342843,779.723450 10.312113,772.826843 10.456789,765.055786 
	C11.650344,734.769409 12.668491,705.357666 14.041928,675.542114 
	C14.373673,673.400879 14.350129,671.663513 14.539125,669.200562 
	C15.075218,664.967712 15.398769,661.460449 16.058762,657.654297 
	C16.334763,656.220459 16.274321,655.085449 16.405693,653.164124 
	C21.479727,627.941162 25.137800,603.183594 31.448723,579.121704 
	C64.951981,451.382751 129.915588,341.141022 219.968094,245.338745 
	C287.043030,173.981155 364.810089,116.952782 453.359741,74.908203 
	C539.700256,33.912533 630.646240,10.471452 726.600220,4.593816 
	C736.123718,4.005835 745.061890,3.002918 754.000000,2.000001 
	C768.708496,2.000000 783.416992,2.000000 799.741089,2.433285 
	C809.391052,3.637758 817.417664,4.513014 825.464905,5.110423 
	C827.603271,5.269170 829.804871,4.574906 831.977478,4.272289 
	C838.112610,4.740090 844.247742,5.207894 851.481750,6.194367 
	C853.717407,6.541577 854.854187,6.370118 855.990967,6.198657 
z"/>
<path fill="#870224" opacity="1.000000" stroke="none" 
	d="
M1802.000000,1077.333374 
	C1791.949585,1110.781372 1780.069458,1142.886108 1765.865356,1174.093994 
	C1742.402954,1225.643188 1713.310913,1273.576660 1674.506470,1315.218872 
	C1647.960571,1343.705933 1618.034912,1367.889404 1583.924194,1386.792114 
	C1582.198120,1387.748779 1580.545776,1388.838623 1578.309570,1390.201172 
	C1578.309570,1571.954590 1578.309570,1753.802002 1578.309570,1935.429810 
	C1570.475098,1937.879272 1154.719116,1938.948608 1129.483398,1936.719116 
	C1129.221313,1934.392944 1128.674072,1931.885620 1128.695435,1929.383179 
	C1129.211426,1869.098511 1129.924194,1808.815430 1130.308594,1748.530151 
	C1130.593384,1703.880371 1130.289795,1659.226807 1130.561035,1614.576904 
	C1130.996216,1542.963501 1131.581299,1471.350220 1132.442017,1399.740967 
	C1132.528564,1392.522339 1130.289429,1388.618896 1124.152222,1384.744385 
	C1009.748169,1312.521851 939.895569,1210.065063 915.969177,1076.644043 
	C915.737061,1075.349854 915.588196,1074.037964 915.471191,1072.728149 
	C915.445374,1072.438599 915.720520,1072.122192 915.857117,1071.818237 
	C923.560608,1069.676758 1114.831543,1068.717285 1145.534790,1070.689453 
	C1146.120850,1071.621826 1147.112915,1072.634521 1147.459473,1073.833862 
	C1155.995605,1103.372681 1174.279785,1126.422363 1196.475342,1146.673462 
	C1233.254272,1180.230103 1276.024780,1202.462402 1325.139160,1211.057861 
	C1389.942871,1222.398926 1447.211060,1206.410522 1495.571777,1161.010620 
	C1520.167480,1137.920776 1538.791992,1110.437256 1553.897949,1080.491455 
	C1556.469116,1075.394531 1559.267334,1073.244629 1565.244873,1073.263550 
	C1643.557373,1073.510132 1721.870728,1073.463745 1801.092041,1073.745483 
	C1802.000000,1074.888916 1802.000000,1075.777832 1802.000000,1077.333374 
z"/>
<path fill="#FFFEFE" opacity="1.000000" stroke="none" 
	d="
M13.686638,675.945862 
	C12.668491,705.357666 11.650344,734.769409 9.848305,765.606628 
	C9.208302,773.990479 9.352189,780.948853 9.496076,787.907288 
	C9.260236,811.329041 9.024397,834.750793 7.949637,859.596069 
	C7.275407,870.656006 7.440096,880.292419 7.604785,889.928894 
	C7.363320,925.943115 7.121856,961.957336 5.993065,999.294495 
	C4.753732,1012.353210 4.529952,1024.095093 3.969795,1035.821045 
	C3.806584,1039.237549 2.683245,1042.608276 2.000003,1046.000000 
	C2.000000,698.172180 2.000000,350.344360 2.000000,2.000000 
	C242.708206,2.000000 483.416779,2.000000 725.200562,2.543803 
	C726.188904,3.451364 726.101929,3.815122 726.014893,4.178881 
	C630.646240,10.471452 539.700256,33.912533 453.359741,74.908203 
	C364.810089,116.952782 287.043030,173.981155 219.968094,245.338745 
	C129.915588,341.141022 64.951981,451.382751 31.448723,579.121704 
	C25.137800,603.183594 21.479727,627.941162 15.953788,653.432129 
	C15.447482,655.642090 15.584899,656.797607 15.722318,657.953186 
	C15.398769,661.460449 15.075218,664.967712 14.023972,669.531738 
	C13.426396,672.374329 13.556517,674.160095 13.686638,675.945862 
z"/>
<path fill="#890627" opacity="1.000000" stroke="none" 
	d="
M1120.936768,2580.000000 
	C1117.142456,2578.638672 1114.398926,2576.917236 1111.409912,2575.971680 
	C1080.885620,2566.314941 1056.875854,2548.478760 1041.366943,2520.107178 
	C1035.059082,2508.567627 1031.700439,2496.367920 1031.800659,2482.861572 
	C1032.191284,2430.203369 1032.231323,2377.538574 1031.787842,2324.881104 
	C1031.662109,2309.962158 1037.450928,2303.994141 1051.587402,2303.518066 
	C1056.247070,2303.361084 1060.921509,2303.108154 1065.571411,2303.308838 
	C1075.075317,2303.718750 1080.088989,2308.483154 1081.236938,2318.059814 
	C1081.592041,2321.022461 1081.487427,2324.046875 1081.498413,2327.043213 
	C1081.647705,2367.698486 1081.748535,2408.354248 1081.937012,2449.009277 
	C1081.992554,2460.998535 1082.249512,2472.987793 1082.498413,2484.975098 
	C1082.546387,2487.280518 1082.501221,2489.770020 1083.321899,2491.849854 
	C1095.959473,2523.878418 1123.836548,2540.549561 1156.551636,2527.642822 
	C1165.670776,2524.045166 1173.552002,2518.477539 1179.992554,2511.051270 
	C1186.306396,2503.770752 1189.677979,2495.546631 1189.637207,2485.567627 
	C1189.413940,2430.907715 1189.525879,2376.246582 1189.528198,2321.585693 
	C1189.528320,2316.937500 1189.181763,2312.302979 1192.834839,2308.445068 
	C1200.691895,2300.147705 1226.398193,2300.710449 1233.090210,2309.958984 
	C1235.447876,2313.217285 1237.005005,2317.863525 1237.022095,2321.884277 
	C1237.268066,2379.543701 1237.275024,2437.204834 1237.037720,2494.864258 
	C1237.016479,2500.035645 1235.419312,2505.378906 1233.679688,2510.335205 
	C1224.167725,2537.435059 1208.321411,2559.403076 1181.554932,2571.801270 
	C1174.970093,2574.851318 1167.715210,2576.454346 1160.384155,2579.361328 
	C1147.291138,2580.000000 1134.582397,2580.000000 1120.936768,2580.000000 
z"/>
<path fill="#880325" opacity="1.000000" stroke="none" 
	d="
M1334.908203,2580.000000 
	C1332.627808,2579.154785 1331.327515,2578.150635 1329.871338,2577.490723 
	C1322.445801,2574.125488 1319.368042,2569.065186 1319.423584,2560.308350 
	C1319.832520,2495.703125 1319.644897,2431.093750 1319.645142,2366.485840 
	C1319.645142,2362.914062 1319.645142,2359.342041 1319.645142,2355.120605 
	C1315.762451,2354.850342 1312.868774,2354.495117 1309.972656,2354.475098 
	C1299.982300,2354.405029 1289.961548,2353.984131 1280.010132,2354.612793 
	C1272.956299,2355.058105 1268.649170,2351.943848 1265.229004,2346.565430 
	C1259.715454,2337.895020 1257.997681,2328.655518 1262.178955,2319.011475 
	C1265.455566,2311.454102 1270.788818,2306.918701 1279.831177,2306.963623 
	C1321.458984,2307.170166 1363.088867,2307.146240 1404.716919,2306.957520 
	C1412.298706,2306.923096 1417.437988,2310.493896 1421.374512,2316.184082 
	C1428.055176,2325.841064 1425.442383,2343.629639 1416.101196,2350.825439 
	C1413.741333,2352.643555 1410.068726,2353.426025 1406.970947,2353.500488 
	C1394.681030,2353.795654 1382.380005,2353.621826 1368.593384,2353.621826 
	C1368.593384,2357.712158 1368.593384,2361.216064 1368.593384,2364.719971 
	C1368.593140,2428.661865 1368.273193,2492.606934 1368.883423,2556.543213 
	C1368.994873,2568.236816 1364.470093,2574.615479 1354.325928,2579.394287 
	C1347.938843,2580.000000 1341.877563,2580.000000 1334.908203,2580.000000 
z"/>
<path fill="#E8C4CD" opacity="1.000000" stroke="none" 
	d="
M2.000003,1046.937256 
	C2.683245,1042.608276 3.806584,1039.237549 3.969795,1035.821045 
	C4.529952,1024.095093 4.753732,1012.353210 5.691051,1000.161987 
	C6.463666,1012.975037 6.862609,1026.244751 6.791274,1039.511963 
	C6.668127,1062.415283 6.125792,1085.316284 5.987998,1108.219604 
	C5.744228,1148.738037 5.671979,1189.257446 4.856444,1230.722900 
	C3.456631,1231.779541 2.728320,1231.889771 2.000005,1232.000000 
	C2.000000,1170.624878 2.000000,1109.249756 2.000003,1046.937256 
z"/>
<path fill="#A02344" opacity="1.000000" stroke="none" 
	d="
M5.710757,1323.721436 
	C5.796071,1367.682617 5.912990,1411.643799 5.865004,1455.604980 
	C5.862814,1457.610962 4.374927,1459.615356 2.789507,1461.810303 
	C2.000000,1417.291504 2.000000,1372.583130 2.496675,1326.710205 
	C3.899161,1324.937500 4.804974,1324.329468 5.710757,1323.721436 
z"/>
<path fill="#C56D82" opacity="1.000000" stroke="none" 
	d="
M5.733593,1322.807983 
	C4.804974,1324.329468 3.899161,1324.937500 2.496675,1325.772827 
	C2.000000,1295.291504 2.000000,1264.583130 2.000005,1232.937378 
	C2.728320,1231.889771 3.456631,1231.779541 4.737311,1231.625366 
	C5.450373,1256.059570 5.618701,1280.537842 5.766009,1305.015991 
	C5.799866,1310.641968 5.761519,1316.268311 5.733593,1322.807983 
z"/>
<path fill="#C56D82" opacity="1.000000" stroke="none" 
	d="
M831.796509,3.702367 
	C829.804871,4.574906 827.603271,5.269170 825.464905,5.110423 
	C817.417664,4.513014 809.391052,3.637758 800.678345,2.433285 
	C810.044189,2.000000 820.088379,2.000000 831.066284,2.000000 
	C831.871826,2.377481 831.743652,2.754962 831.796509,3.702367 
z"/>
<path fill="#C56D82" opacity="1.000000" stroke="none" 
	d="
M726.600220,4.593816 
	C726.101929,3.815122 726.188904,3.451364 726.137939,2.543803 
	C734.713806,2.000000 743.427612,2.000000 753.070679,2.000001 
	C745.061890,3.002918 736.123718,4.005835 726.600220,4.593816 
z"/>
<path fill="#E8C4CD" opacity="1.000000" stroke="none" 
	d="
M908.908203,2580.000000 
	C908.024170,2579.616699 908.048279,2579.233398 908.985229,2578.250488 
	C915.978394,2577.328369 922.058655,2577.005859 928.138916,2576.683350 
	C928.099487,2577.419189 928.060059,2578.154785 928.010254,2579.445312 
	C921.938782,2580.000000 915.877625,2580.000000 908.908203,2580.000000 
z"/>
<path fill="#E8C4CD" opacity="1.000000" stroke="none" 
	d="
M627.906189,2577.754395 
	C627.929321,2578.128174 627.952515,2578.502197 627.987793,2579.437988 
	C624.571655,2580.000000 621.143250,2580.000000 616.857422,2580.000000 
	C616.000549,2579.638916 616.001160,2579.277588 616.871216,2578.250244 
	C621.129211,2577.640869 624.517700,2577.697510 627.906189,2577.754395 
z"/>
<path fill="#870224" opacity="1.000000" stroke="none" 
	d="
M1326.793823,798.283447 
	C1355.077271,794.327576 1382.077271,796.375427 1408.814209,803.441650 
	C1481.765503,822.721802 1538.740601,886.798706 1547.915649,960.101562 
	C1559.691528,1054.182861 1501.025146,1141.849731 1408.239380,1165.937744 
	C1336.885498,1184.461914 1272.318237,1169.142212 1218.736694,1117.952026 
	C1174.036743,1075.247070 1155.799316,1021.613281 1163.584839,960.002563 
	C1174.120361,876.629883 1241.693359,811.756470 1323.001953,799.108643 
	C1323.987305,798.955383 1324.952026,798.669312 1326.793823,798.283447 
z"/>
<path fill="#890526" opacity="1.000000" stroke="none" 
	d="
M206.083008,2161.700928 
	C180.317474,2083.451416 224.701569,2001.000977 302.935638,1980.675659 
	C383.300537,1959.796875 463.831940,2009.593872 479.414795,2089.802490 
	C494.324677,2166.547119 441.030273,2241.973633 364.368652,2254.362061 
	C294.248596,2265.693359 228.997452,2226.050049 206.083008,2161.700928 
M430.650665,2120.756592 
	C433.873871,2064.917725 382.290924,2016.912231 322.199799,2029.269409 
	C274.061462,2039.168701 242.300537,2087.986816 253.288452,2135.492188 
	C264.463104,2183.804932 314.094177,2214.067627 361.730103,2202.572266 
	C396.089172,2194.280762 427.222168,2164.284912 430.650665,2120.756592 
z"/>
<path fill="#890526" opacity="1.000000" stroke="none" 
	d="
M819.340881,2257.093750 
	C767.929504,2257.935059 726.606689,2238.884766 697.572754,2197.497070 
	C665.585999,2151.900146 661.796387,2102.398193 687.537598,2053.058350 
	C713.568420,2003.163330 756.637573,1977.573364 813.082581,1977.028564 
	C883.947388,1976.344482 943.373718,2026.991333 953.413025,2097.078613 
	C964.139343,2171.962646 915.181152,2238.220215 843.935852,2253.858643 
	C836.179016,2255.561035 828.154053,2256.041504 819.340881,2257.093750 
M896.697754,2151.414062 
	C903.179321,2137.097168 905.422302,2121.994385 903.405273,2106.559326 
	C895.136597,2043.284424 825.975952,2008.724487 770.032166,2039.703857 
	C735.915649,2058.596191 717.991638,2097.887939 726.334900,2135.647217 
	C734.437256,2172.316162 765.110901,2201.882080 806.549438,2205.565186 
	C845.969788,2209.068604 881.517334,2186.293701 896.697754,2151.414062 
z"/>
<path fill="#8A0627" opacity="1.000000" stroke="none" 
	d="
M207.140289,2358.816406 
	C231.882141,2401.758789 256.233704,2444.079834 280.585297,2486.401123 
	C281.150513,2486.311035 281.715729,2486.221191 282.280945,2486.131348 
	C282.546021,2484.474609 283.041290,2482.818359 283.042755,2481.161377 
	C283.088135,2429.852783 283.083557,2378.544434 283.094757,2327.235840 
	C283.095337,2324.571777 282.906921,2321.873291 283.250793,2319.249268 
	C284.749512,2307.812256 287.876190,2305.123779 299.321747,2305.099365 
	C303.652985,2305.090088 307.988007,2304.991211 312.314819,2305.132568 
	C323.113098,2305.484863 329.584381,2311.937256 329.591003,2322.629639 
	C329.636322,2395.928223 329.584656,2469.226562 329.648438,2542.525146 
	C329.657867,2553.348633 324.929108,2561.885986 317.037354,2568.566406 
	C303.884003,2579.700684 284.522278,2575.983887 274.843597,2560.410889 
	C267.115173,2547.975586 260.040771,2535.132812 252.703369,2522.455322 
	C228.351440,2480.379883 204.017166,2438.294434 179.655960,2396.224609 
	C178.018311,2393.396484 176.213699,2390.665039 172.661331,2388.005127 
	C172.468994,2390.648926 172.110718,2393.292480 172.108887,2395.936279 
	C172.073730,2446.912109 172.085510,2497.887695 172.065033,2548.863525 
	C172.063828,2551.853760 172.319992,2554.944336 171.678284,2557.814209 
	C170.142029,2564.685791 164.578201,2568.859619 157.185974,2569.062500 
	C152.525040,2569.190430 147.849365,2569.266357 143.195038,2569.049561 
	C133.315872,2568.589355 128.889969,2563.980957 128.869751,2553.894287 
	C128.798294,2518.244629 128.844421,2482.594971 128.844116,2446.945312 
	C128.843765,2407.297363 128.823547,2367.649658 128.849304,2328.001709 
	C128.858658,2313.596680 140.005417,2300.923828 154.047089,2299.335449 
	C166.512848,2297.925537 175.245163,2303.854248 181.307571,2314.062012 
	C189.977783,2328.660645 198.286743,2343.473633 207.140289,2358.816406 
z"/>
<path fill="#890426" opacity="1.000000" stroke="none" 
	d="
M647.662842,2050.851074 
	C648.442932,2070.577148 642.232422,2086.180908 626.843628,2097.204346 
	C633.320435,2102.996338 640.694397,2108.602783 646.885925,2115.302002 
	C671.195923,2141.604248 674.901550,2173.634766 657.225952,2204.505615 
	C645.651489,2224.720703 628.973389,2239.704590 607.784851,2249.396484 
	C604.013184,2251.121826 599.511719,2251.926758 595.333618,2251.975098 
	C573.696289,2252.225830 552.052429,2252.257324 530.415771,2251.979248 
	C524.856445,2251.907715 519.226746,2250.792480 513.806519,2249.444336 
	C511.473663,2248.863770 508.933563,2246.885986 507.625488,2244.822021 
	C503.182617,2237.812012 499.432861,2230.641602 499.457245,2221.747314 
	C499.646149,2152.832031 499.542938,2083.915771 499.581299,2015.000000 
	C499.590851,1997.841187 511.096375,1986.406006 528.383606,1986.334961 
	C547.693054,1986.255493 567.010132,1986.622803 586.309631,1986.177856 
	C595.053284,1985.976440 602.751892,1988.247192 609.899536,1992.757202 
	C631.073730,2006.118042 643.897522,2025.057739 647.662842,2050.851074 
M594.519043,2135.622314 
	C581.629944,2135.252686 568.740540,2134.627930 555.851807,2134.640381 
	C550.775879,2134.645508 549.872742,2138.658203 549.915222,2143.186768 
	C550.070618,2159.798340 549.896484,2176.412598 550.001343,2193.024902 
	C550.057190,2201.870850 552.939209,2205.003174 561.825562,2205.374756 
	C570.117615,2205.721680 578.442505,2205.651855 586.737793,2205.349854 
	C589.604675,2205.245605 592.663940,2204.354248 595.227966,2203.032227 
	C607.803223,2196.549072 614.788330,2186.110352 615.003418,2171.930420 
	C615.234009,2156.721436 610.228149,2143.882080 594.519043,2135.622314 
M552.435425,2078.349609 
	C567.579590,2087.998535 588.864136,2081.928223 596.276550,2065.846436 
	C602.776794,2051.743652 594.442078,2036.309326 579.137573,2034.511475 
	C572.540955,2033.736328 565.867432,2033.345947 559.225037,2033.296753 
	C550.626770,2033.233032 549.123535,2034.679443 548.914673,2042.944336 
	C548.687622,2051.930908 548.694092,2060.933105 548.973267,2069.916504 
	C549.050049,2072.388184 550.465881,2074.818115 552.435425,2078.349609 
z"/>
<path fill="#8A0728" opacity="1.000000" stroke="none" 
	d="
M899.626099,1746.000000 
	C899.626160,1798.974976 899.632324,1850.950073 899.622070,1902.925049 
	C899.619568,1915.606323 893.725037,1922.156006 881.154297,1922.340332 
	C875.967468,1922.416382 870.552368,1921.380981 865.600830,1919.755249 
	C857.611877,1917.132324 853.894775,1911.963501 854.146851,1902.542358 
	C854.877319,1875.241699 854.405945,1847.908936 854.406128,1820.588745 
	C854.406128,1817.301758 854.406067,1814.014771 854.406067,1810.937500 
	C846.914124,1808.588135 768.861450,1807.904541 753.492188,1810.023315 
	C753.492188,1813.418945 753.492188,1816.985962 753.492188,1820.552979 
	C753.492249,1848.539551 753.492249,1876.526001 753.492371,1904.512573 
	C753.492493,1917.915649 746.701538,1925.498047 733.209656,1925.826294 
	C727.729248,1925.959595 721.928101,1924.814331 716.755005,1922.928467 
	C708.704895,1919.993652 704.538147,1914.595337 704.588135,1904.827759 
	C704.987122,1826.867188 704.805603,1748.903687 704.815308,1670.941162 
	C704.816528,1660.711548 707.274780,1657.514404 716.867004,1654.339478 
	C725.147095,1651.598755 733.274536,1652.287598 741.382141,1654.911499 
	C753.428711,1658.810059 755.359314,1661.479858 755.357117,1674.051880 
	C755.352722,1699.039917 755.351990,1724.027832 755.349854,1749.015869 
	C755.349548,1752.241455 755.349792,1755.466919 755.349792,1759.138184 
	C788.333496,1759.138184 820.173584,1759.138184 852.570190,1759.138184 
	C852.760742,1756.604614 853.069336,1754.392334 853.071838,1752.179810 
	C853.101807,1725.526001 853.411865,1698.865601 852.879700,1672.222290 
	C852.725281,1664.493530 855.840942,1660.479614 862.239502,1657.675903 
	C869.844482,1654.343750 877.480042,1653.702271 885.560669,1656.031616 
	C896.915344,1659.304688 899.619263,1662.470703 899.623352,1674.033691 
	C899.631714,1697.689087 899.626038,1721.344604 899.626099,1746.000000 
z"/>
<path fill="#890426" opacity="1.000000" stroke="none" 
	d="
M122.484985,1981.178955 
	C145.352600,1989.468384 163.645721,2002.250977 173.350937,2024.401489 
	C183.698166,2048.016846 182.376160,2071.779053 171.253403,2094.866699 
	C169.013870,2099.515381 165.071091,2103.343262 161.301224,2108.365234 
	C162.728149,2109.569824 164.845490,2111.459961 167.068970,2113.215576 
	C175.712265,2120.040771 180.151169,2128.702881 180.079559,2139.944092 
	C179.882187,2170.927979 180.048798,2201.913574 179.985855,2232.898682 
	C179.968689,2241.343750 177.728714,2244.354004 169.234543,2245.450928 
	C163.738297,2246.160645 157.887955,2246.055664 152.460724,2244.980713 
	C140.182022,2242.548828 137.641144,2238.979004 137.638580,2226.718506 
	C137.634125,2205.395508 137.646301,2184.072510 137.645981,2162.749512 
	C137.645676,2142.117432 133.393570,2137.944336 112.390694,2137.944092 
	C101.219963,2137.944092 90.049232,2137.943848 78.256874,2137.943848 
	C78.256874,2149.598633 78.256790,2162.229004 78.256897,2174.859375 
	C78.257057,2193.850098 78.160751,2212.841797 78.325897,2231.831299 
	C78.366867,2236.542725 77.741745,2240.417236 72.752464,2242.260254 
	C61.120850,2246.556641 49.447899,2247.595947 37.724949,2242.691406 
	C32.365982,2240.449463 29.734600,2237.035889 29.757267,2230.508057 
	C30.012941,2156.877686 29.896002,2083.246582 29.941765,2009.615601 
	C29.949009,1997.960327 43.070206,1981.804565 56.173424,1980.744629 
	C76.317947,1979.115234 96.654594,1979.833984 116.910622,1979.661621 
	C118.517090,1979.647949 120.130547,1980.453491 122.484985,1981.178955 
M126.472435,2081.521484 
	C138.266418,2068.964111 138.857651,2056.581299 128.356918,2043.309082 
	C116.613266,2028.466064 100.534889,2025.284912 82.931969,2026.716431 
	C81.335060,2026.846191 79.370552,2029.486450 78.642654,2031.372314 
	C77.853676,2033.416870 78.242378,2035.942871 78.239441,2038.259155 
	C78.217995,2055.180664 78.201874,2072.102295 78.254112,2089.023926 
	C78.261940,2091.560059 78.635307,2094.095215 78.890152,2097.258789 
	C95.756996,2095.020752 111.712601,2092.520752 126.472435,2081.521484 
z"/>
<path fill="#890527" opacity="1.000000" stroke="none" 
	d="
M1548.329102,2027.043945 
	C1544.041748,2035.575073 1542.404297,2036.588501 1534.191528,2033.816895 
	C1518.862671,2028.643921 1503.091919,2026.618530 1487.043945,2026.274414 
	C1482.742676,2026.182129 1478.366943,2026.395020 1474.128296,2027.092896 
	C1456.733398,2029.956177 1446.703125,2042.627686 1447.873047,2060.256104 
	C1448.157959,2064.548828 1449.215088,2068.792480 1449.943726,2073.053955 
	C1451.177856,2080.273438 1455.531128,2085.065674 1462.075562,2087.800049 
	C1467.284790,2089.976318 1472.654053,2091.796875 1478.023193,2093.559082 
	C1495.091187,2099.160889 1512.378662,2104.154541 1529.229370,2110.341553 
	C1546.834473,2116.805664 1560.762695,2128.191406 1566.838135,2146.515625 
	C1576.850708,2176.714844 1570.166870,2204.423096 1551.476440,2229.320557 
	C1547.667603,2234.394287 1541.572510,2238.445801 1535.696045,2241.160156 
	C1498.808838,2258.198242 1460.549316,2262.849854 1421.036987,2251.774170 
	C1416.424561,2250.481201 1412.035400,2247.626465 1408.158081,2244.684814 
	C1404.060303,2241.575928 1402.101074,2237.012939 1402.319580,2231.540283 
	C1402.585083,2224.889893 1402.707397,2218.200684 1402.292358,2211.565430 
	C1401.774048,2203.279053 1405.359131,2198.352783 1413.457764,2195.936523 
	C1415.597656,2197.342529 1417.851196,2198.715332 1419.990723,2200.247070 
	C1431.172729,2208.251953 1443.337769,2212.641846 1457.366577,2211.651123 
	C1464.296387,2211.161621 1471.317749,2212.124268 1478.276978,2211.866699 
	C1492.543701,2211.338867 1506.066528,2208.371582 1516.686157,2197.808105 
	C1526.458618,2188.087402 1527.779907,2174.766846 1520.264526,2163.190918 
	C1515.565308,2155.952393 1509.050903,2150.586914 1501.069946,2147.870117 
	C1492.959839,2145.109131 1484.448364,2142.631592 1475.967773,2142.011719 
	C1441.290527,2139.476318 1408.117798,2115.981445 1401.271362,2077.158936 
	C1394.946045,2041.291626 1411.238525,2008.622803 1444.420166,1993.453003 
	C1470.609253,1981.479736 1497.815308,1980.845581 1525.461304,1987.058716 
	C1530.625732,1988.219360 1535.559326,1990.378174 1540.698242,1991.689209 
	C1547.407959,1993.401123 1549.734497,1997.930176 1549.485474,2004.287964 
	C1549.199219,2011.596191 1548.772339,2018.898804 1548.329102,2027.043945 
z"/>
<path fill="#890526" opacity="1.000000" stroke="none" 
	d="
M416.165161,2573.338867 
	C401.784180,2573.400635 388.649292,2571.391846 375.874359,2567.289307 
	C364.090240,2563.504639 359.950043,2557.623535 359.911743,2545.326172 
	C359.895111,2539.996338 360.079956,2534.651123 359.747864,2529.339600 
	C359.081665,2518.684326 359.630951,2517.485107 369.943604,2511.878174 
	C373.216644,2514.006592 376.806824,2516.303711 380.358704,2518.658203 
	C391.325409,2525.928223 403.341827,2528.738770 416.444824,2527.709961 
	C421.710114,2527.296875 427.048737,2527.594238 432.343140,2527.820557 
	C445.014893,2528.362305 456.915680,2525.593994 467.539154,2518.754150 
	C485.411163,2507.247314 486.959564,2486.692627 471.170380,2472.307861 
	C461.168335,2463.195557 448.972137,2459.002441 435.656647,2458.276611 
	C423.498993,2457.613281 411.886169,2454.947754 401.045746,2449.536621 
	C371.647675,2434.862305 357.011993,2410.598877 357.066559,2378.077881 
	C357.121155,2345.549316 372.608368,2321.988770 402.399445,2309.016602 
	C434.201080,2295.168701 466.566895,2296.525635 498.859192,2308.166748 
	C504.074493,2310.046631 506.246094,2313.417969 506.156219,2318.676758 
	C506.025330,2326.336914 506.191620,2334.015625 505.695374,2341.651611 
	C505.200867,2349.260498 500.019226,2352.755859 492.675079,2350.396240 
	C475.424408,2344.854004 457.844391,2341.643066 439.693451,2342.250244 
	C435.414520,2342.393555 431.056763,2342.948486 426.918549,2344.021240 
	C413.859222,2347.406982 405.987396,2356.259521 405.051239,2369.419189 
	C404.478302,2377.473145 406.068420,2386.066650 408.588928,2393.797607 
	C409.909058,2397.846924 414.815918,2401.646729 419.014343,2403.635986 
	C426.467926,2407.167725 434.596069,2409.292725 442.476471,2411.902100 
	C456.365906,2416.500977 470.372040,2420.763672 484.168182,2425.624512 
	C520.255066,2438.339111 532.904480,2470.521240 526.775208,2501.789062 
	C526.391174,2503.748047 526.298279,2505.766113 525.885071,2507.717529 
	C519.911560,2535.926025 505.167053,2556.016846 476.093567,2564.378174 
	C456.713226,2569.952393 437.300781,2573.808838 416.165161,2573.338867 
z"/>
<path fill="#8A0627" opacity="1.000000" stroke="none" 
	d="
M1444.441895,2509.986328 
	C1444.441895,2450.705566 1444.712769,2392.419922 1444.254272,2334.140137 
	C1444.137207,2319.257080 1451.194092,2308.682861 1466.872192,2306.619141 
	C1471.795776,2305.971191 1476.754883,2305.213135 1481.701538,2305.185303 
	C1507.345459,2305.041504 1532.996948,2305.435059 1558.631592,2304.924561 
	C1566.402466,2304.770020 1570.447510,2307.929688 1572.850586,2314.544922 
	C1573.870117,2317.351562 1574.961426,2320.171875 1575.572021,2323.080322 
	C1578.646484,2337.722168 1570.327881,2348.102783 1555.524536,2348.151367 
	C1539.205322,2348.204834 1522.885376,2348.101074 1506.566528,2348.186768 
	C1496.803711,2348.238037 1494.316284,2350.386719 1493.887939,2360.426025 
	C1493.334839,2373.385986 1493.145630,2386.376465 1493.358398,2399.344727 
	C1493.420288,2403.123047 1495.047607,2407.016113 1496.579712,2410.590088 
	C1498.142456,2414.234619 1501.240723,2415.629883 1505.455566,2415.569092 
	C1521.438477,2415.337646 1537.458008,2416.027100 1553.397095,2415.154053 
	C1560.020996,2414.790771 1564.286621,2417.260254 1566.085327,2422.247559 
	C1568.505371,2428.957520 1570.491821,2436.414551 1570.114990,2443.414062 
	C1569.428589,2456.164062 1563.579834,2460.522461 1550.692749,2460.532471 
	C1536.038574,2460.543701 1521.384521,2460.536133 1506.730347,2460.536865 
	C1503.481689,2460.537109 1500.233154,2460.536865 1495.791016,2460.536865 
	C1495.791016,2467.729736 1495.790649,2473.950928 1495.791138,2480.172119 
	C1495.791992,2490.829590 1495.746460,2501.487549 1495.807983,2512.144775 
	C1495.869507,2522.791748 1498.860352,2525.876465 1509.273560,2525.914795 
	C1526.258789,2525.977539 1543.244507,2525.897949 1560.229858,2525.947754 
	C1568.449585,2525.971924 1571.490356,2528.191650 1574.027710,2535.909912 
	C1577.519775,2546.531738 1575.874634,2556.920654 1572.446655,2567.208740 
	C1571.208252,2570.925781 1568.603271,2572.065918 1564.782715,2572.052490 
	C1535.141724,2571.947998 1505.498901,2572.161621 1475.859863,2571.894775 
	C1466.261230,2571.808350 1458.533203,2566.987305 1453.316040,2559.034912 
	C1447.783325,2550.601318 1443.989868,2541.444580 1444.392578,2530.965088 
	C1444.648193,2524.313965 1444.441406,2517.645020 1444.441895,2509.986328 
z"/>
<path fill="#8A0627" opacity="1.000000" stroke="none" 
	d="
M947.820435,1916.054199 
	C941.757935,1906.101685 939.271790,1896.180054 939.321350,1885.089478 
	C939.610413,1820.450562 939.759338,1755.807373 939.241394,1691.171387 
	C939.121277,1676.182739 946.037476,1665.975586 963.053406,1663.747925 
	C967.655884,1663.145508 972.331665,1662.869141 976.975098,1662.853271 
	C1001.631348,1662.768921 1026.288086,1662.811157 1050.944702,1662.817261 
	C1063.034180,1662.820312 1066.513672,1664.967163 1069.291138,1676.290527 
	C1070.524902,1681.320312 1070.628418,1686.967163 1069.780640,1692.091675 
	C1068.349731,1700.741699 1061.330200,1705.656128 1051.499878,1705.741089 
	C1035.507690,1705.879272 1019.513306,1705.755737 1003.519958,1705.782104 
	C989.953125,1705.804443 988.063293,1707.727051 988.013123,1721.499878 
	C987.971863,1732.827759 987.944580,1744.156128 987.972534,1755.484009 
	C988.002930,1767.819214 992.532593,1772.505737 1004.475952,1772.533936 
	C1018.803345,1772.567749 1033.130981,1772.559692 1047.458252,1772.505981 
	C1055.462524,1772.475952 1060.706909,1774.987915 1062.407349,1782.457153 
	C1064.142334,1790.077393 1064.708252,1798.269775 1064.006104,1806.051025 
	C1063.336426,1813.475220 1056.947266,1817.567017 1049.068848,1817.599854 
	C1032.409424,1817.669434 1015.748840,1817.555176 999.089600,1817.654419 
	C990.367249,1817.706299 989.992920,1818.097534 989.939148,1826.628662 
	C989.848816,1840.955688 989.803284,1855.284546 989.952087,1869.610596 
	C990.052917,1879.314575 993.564270,1882.786133 1003.256348,1882.851440 
	C1019.915405,1882.963501 1036.599976,1883.425171 1053.227295,1882.688599 
	C1064.688232,1882.180786 1067.688477,1887.475098 1069.565796,1896.161743 
	C1071.535156,1905.273926 1070.893799,1914.668945 1067.724854,1923.712158 
	C1066.195190,1928.077393 1063.637207,1929.859253 1058.821167,1929.826904 
	C1030.167480,1929.635498 1001.508972,1929.972656 972.858521,1929.616699 
	C962.810181,1929.492065 954.228333,1925.165894 947.820435,1916.054199 
z"/>
<path fill="#890526" opacity="1.000000" stroke="none" 
	d="
M1262.666748,2012.634644 
	C1286.346436,1992.810791 1313.446411,1983.816650 1343.185913,1982.730713 
	C1352.741455,1982.381958 1362.385010,1984.277222 1371.979492,1985.233521 
	C1376.222778,1985.656494 1379.750610,1987.562866 1381.476196,1991.592285 
	C1386.149292,2002.505249 1387.225220,2013.450684 1380.889404,2024.190063 
	C1377.417480,2030.075195 1372.708252,2033.166382 1365.363159,2032.895386 
	C1350.604736,2032.351074 1336.148560,2034.861084 1322.085815,2039.324097 
	C1263.038086,2058.064209 1252.280640,2112.723145 1272.448120,2154.395020 
	C1291.168457,2193.076904 1323.000977,2213.045410 1365.885986,2212.986572 
	C1378.712280,2212.968994 1382.750732,2216.498047 1384.374390,2229.317871 
	C1385.048218,2234.639404 1383.722534,2240.473877 1382.164062,2245.737305 
	C1380.894165,2250.026123 1377.268799,2252.465576 1372.196655,2252.553711 
	C1340.154297,2253.111816 1308.997437,2249.208496 1280.156372,2234.103516 
	C1243.038208,2214.663086 1220.690796,2184.067627 1214.973267,2142.664551 
	C1207.912964,2091.537598 1224.052734,2048.153564 1262.666748,2012.634644 
z"/>
<path fill="#8A0728" opacity="1.000000" stroke="none" 
	d="
M526.657227,1697.296753 
	C520.841064,1690.174683 518.919861,1682.700928 519.421265,1674.327271 
	C520.004639,1664.584473 528.221802,1653.904541 541.008423,1654.140991 
	C580.656006,1654.874023 620.325806,1654.403931 659.986938,1654.411865 
	C678.208862,1654.415527 688.916870,1668.452026 683.280457,1685.859741 
	C680.114197,1695.638672 675.577942,1702.686279 662.410278,1701.662109 
	C651.512878,1700.814575 640.497192,1701.488770 628.096924,1701.488770 
	C628.096924,1705.729858 628.096924,1709.259399 628.096863,1712.788818 
	C628.096069,1775.780029 628.105835,1838.771240 628.080261,1901.762451 
	C628.077332,1908.956421 629.394714,1916.304321 622.088562,1921.686157 
	C614.602356,1927.200439 606.515198,1929.263428 597.653198,1927.724854 
	C593.506592,1927.004883 589.444458,1925.092407 585.672607,1923.098877 
	C580.965149,1920.610474 578.108093,1916.693604 578.813782,1910.892090 
	C579.053467,1908.921143 578.858337,1906.897217 578.858337,1904.897461 
	C578.859436,1841.906250 578.860107,1778.915039 578.860779,1715.923828 
	C578.860840,1711.989380 578.860779,1708.054932 578.860779,1702.806885 
	C570.833984,1702.806885 563.645020,1702.804688 556.455994,1702.807495 
	C550.456848,1702.809814 544.445862,1702.588623 538.462280,1702.896729 
	C533.689026,1703.142334 530.034668,1701.543579 526.657227,1697.296753 
z"/>
<path fill="#8A0627" opacity="1.000000" stroke="none" 
	d="
M1017.057739,2257.899902 
	C1014.017700,2257.082275 1011.724304,2256.544434 1009.621460,2255.587646 
	C1002.121704,2252.173828 997.914734,2247.342285 997.969727,2238.009033 
	C998.350098,2173.418701 998.166931,2108.825195 998.164856,2044.232544 
	C998.164734,2040.660767 998.164795,2037.088989 998.164795,2032.802002 
	C984.819641,2032.802002 972.521545,2032.284790 960.292725,2032.981689 
	C951.968689,2033.455933 947.238586,2029.539673 943.357788,2023.178711 
	C938.940125,2015.937866 938.161682,2008.103394 939.962585,2000.065674 
	C942.095642,1990.545410 949.553833,1984.474365 959.186890,1984.452026 
	C1000.472595,1984.356445 1041.759033,1984.313843 1083.044556,1984.457275 
	C1098.081665,1984.509644 1108.156494,1999.514771 1103.268799,2015.176514 
	C1099.828613,2026.199951 1095.456543,2032.679443 1082.025879,2031.658081 
	C1071.140991,2030.830444 1060.142944,2031.490112 1047.850952,2031.490112 
	C1047.850952,2035.608032 1047.850952,2039.143311 1047.850830,2042.678711 
	C1047.850098,2106.272461 1047.848877,2169.866211 1047.849609,2233.459961 
	C1047.849854,2249.593994 1039.999268,2257.715820 1023.878113,2258.186279 
	C1021.886292,2258.244385 1019.887451,2258.059570 1017.057739,2257.899902 
z"/>
<path fill="#890426" opacity="1.000000" stroke="none" 
	d="
M628.516479,2577.400635 
	C624.517700,2577.697510 621.129211,2577.640869 616.898804,2577.708984 
	C613.263550,2576.773926 610.419617,2575.829834 607.686768,2574.631836 
	C600.313599,2571.400391 596.734802,2566.393799 596.779785,2557.635742 
	C597.109985,2493.332275 596.967957,2429.026123 596.974731,2364.720947 
	C596.975159,2360.821533 596.974854,2356.921875 596.974854,2351.999756 
	C583.868347,2351.999756 571.960083,2352.002441 560.051880,2351.999023 
	C548.429016,2351.995605 542.661804,2347.379150 539.050354,2335.198730 
	C535.786011,2324.188965 539.583191,2311.499023 547.979248,2306.788574 
	C550.456238,2305.399170 553.644165,2304.677979 556.509521,2304.668945 
	C598.823975,2304.536865 641.139038,2304.529053 683.453735,2304.615723 
	C691.893188,2304.633057 699.337341,2310.374023 701.809631,2318.837158 
	C704.709473,2328.763916 702.856689,2337.958496 696.282898,2346.063477 
	C693.183838,2349.884521 689.437073,2351.861816 684.204102,2351.722656 
	C672.247009,2351.404541 660.275635,2351.622070 647.149170,2351.622070 
	C646.993835,2355.593750 646.738953,2359.093018 646.737549,2362.592285 
	C646.711792,2426.231201 646.718262,2489.870117 646.713501,2553.509033 
	C646.712402,2568.248535 643.814697,2572.116455 628.516479,2577.400635 
z"/>
<path fill="#880325" opacity="1.000000" stroke="none" 
	d="
M928.800049,2576.354980 
	C922.058655,2577.005859 915.978394,2577.328369 909.026917,2577.676270 
	C906.670166,2576.979004 905.195374,2576.233398 903.697388,2575.537598 
	C896.378662,2572.138184 893.023315,2567.179688 893.097717,2558.356201 
	C893.544434,2505.385010 893.320740,2452.407959 893.321411,2399.432861 
	C893.321594,2386.772217 893.336121,2374.111328 893.307312,2361.450684 
	C893.302185,2359.181396 893.117065,2356.912598 892.963135,2353.488525 
	C881.305786,2353.488525 870.042480,2352.819580 858.897766,2353.682861 
	C848.479065,2354.489502 841.577637,2350.746338 837.271973,2341.553955 
	C832.724976,2331.846436 832.501343,2322.217285 838.492126,2313.034912 
	C841.746094,2308.047852 846.330322,2305.162842 852.663391,2305.174561 
	C894.976746,2305.253906 937.290283,2305.236328 979.603760,2305.193848 
	C988.056519,2305.185303 993.186707,2310.090576 996.765808,2316.874268 
	C1001.982666,2326.762451 999.060486,2341.814209 990.360962,2348.882080 
	C988.041687,2350.766602 984.414673,2351.745850 981.338745,2351.864502 
	C971.691101,2352.237549 962.019592,2351.965820 952.357849,2352.024414 
	C949.455444,2352.041992 946.554626,2352.324219 942.589783,2352.544189 
	C942.589783,2356.663818 942.589661,2360.239990 942.589844,2363.816406 
	C942.592834,2428.119629 942.438232,2492.423584 942.760193,2556.725342 
	C942.811462,2566.963623 939.115540,2573.183838 928.800049,2576.354980 
z"/>
<path fill="#8A0627" opacity="1.000000" stroke="none" 
	d="
M1189.316162,2034.002197 
	C1189.316040,2101.575195 1189.317871,2168.148438 1189.314575,2234.721924 
	C1189.313965,2247.160645 1187.419556,2250.426025 1175.120239,2251.632568 
	C1166.043457,2252.523193 1156.576538,2251.508789 1147.525024,2249.944580 
	C1140.036865,2248.650879 1139.217041,2246.445801 1138.994629,2238.760742 
	C1138.946411,2237.097900 1138.991699,2235.432373 1138.991699,2233.768066 
	C1138.992920,2158.207275 1138.961060,2082.646484 1139.068481,2007.085815 
	C1139.075684,2002.021606 1137.121338,1996.302124 1142.520142,1992.313843 
	C1149.117065,1987.440552 1156.404907,1984.039429 1164.615723,1984.895508 
	C1169.753296,1985.431274 1174.822144,1987.568115 1179.685913,1989.562134 
	C1186.433350,1992.328003 1189.976318,1997.108398 1189.460815,2005.051025 
	C1188.858398,2014.332275 1189.317627,2023.682373 1189.316162,2034.002197 
z"/>
<path fill="#8A0627" opacity="1.000000" stroke="none" 
	d="
M739.690125,2317.100586 
	C743.033936,2307.029541 752.759888,2301.014160 764.254639,2301.995117 
	C769.436157,2302.437256 774.670166,2304.065430 779.533081,2306.019531 
	C786.956116,2309.002441 790.156799,2314.318359 790.117004,2323.037354 
	C789.767090,2399.603516 789.917603,2476.171875 789.904785,2552.739746 
	C789.902893,2564.004395 788.542297,2565.996582 777.652100,2568.395508 
	C767.768311,2570.572754 757.805237,2570.196777 748.118286,2567.131348 
	C740.837402,2564.827148 739.888000,2563.267578 739.688904,2555.676514 
	C739.636597,2553.680664 739.686646,2551.681885 739.686646,2549.684570 
	C739.686096,2472.450928 739.685120,2395.217285 739.690125,2317.100586 
z"/>
<path fill="#880325" opacity="1.000000" stroke="none" 
	d="
M28.004951,2396.000000 
	C28.004375,2369.697266 28.349279,2344.387207 27.793722,2319.096680 
	C27.625998,2311.461426 30.870178,2307.361084 36.784031,2304.087891 
	C48.477562,2297.614990 65.057747,2299.414062 74.953011,2308.753662 
	C76.819458,2310.515625 77.880547,2313.804199 78.106964,2316.490234 
	C78.580765,2322.110107 78.250801,2327.797607 78.250839,2333.457520 
	C78.251297,2406.036133 78.254509,2478.614746 78.249290,2551.193359 
	C78.248474,2562.537109 76.361900,2565.624512 65.096375,2566.687012 
	C56.295052,2567.517090 47.127918,2567.056641 38.413322,2565.522461 
	C28.906387,2563.848633 28.009630,2561.667236 28.007393,2551.812256 
	C27.995676,2500.208252 28.003754,2448.604004 28.004951,2396.000000 
z"/>
<path fill="#C56D82" opacity="1.000000" stroke="none" 
	d="
M855.681274,5.868170 
	C854.854187,6.370118 853.717407,6.541577 852.287842,6.338630 
	C853.120605,5.822042 854.246033,5.679862 855.681274,5.868170 
z"/>
<path fill="#E8C4CD" opacity="1.000000" stroke="none" 
	d="
M8.026012,889.246277 
	C7.440096,880.292419 7.275407,870.656006 7.748862,860.464050 
	C8.407084,869.460266 8.427161,879.011963 8.026012,889.246277 
z"/>
<path fill="#E8C4CD" opacity="1.000000" stroke="none" 
	d="
M9.934825,787.263672 
	C9.352189,780.948853 9.208302,773.990479 9.672897,766.481201 
	C10.312113,772.826843 10.342843,779.723450 9.934825,787.263672 
z"/>
<path fill="#E8C4CD" opacity="1.000000" stroke="none" 
	d="
M14.041927,675.542114 
	C13.556517,674.160095 13.426396,672.374329 13.811430,670.257324 
	C14.350129,671.663513 14.373673,673.400879 14.041927,675.542114 
z"/>
<path fill="#E8C4CD" opacity="1.000000" stroke="none" 
	d="
M16.058760,657.654297 
	C15.584899,656.797607 15.447482,655.642090 15.761972,654.218506 
	C16.274321,655.085449 16.334763,656.220459 16.058760,657.654297 
z"/>
<path fill="#FEFDFD" opacity="1.000000" stroke="none" 
	d="
M430.628723,2121.701172 
	C427.222168,2164.284912 396.089172,2194.280762 361.730103,2202.572266 
	C314.094177,2214.067627 264.463104,2183.804932 253.288452,2135.492188 
	C242.300537,2087.986816 274.061462,2039.168701 322.199799,2029.269409 
	C382.290924,2016.912231 433.873871,2064.917725 430.628723,2121.701172 
z"/>
<path fill="#FEFDFD" opacity="1.000000" stroke="none" 
	d="
M896.407471,2152.117188 
	C881.517334,2186.293701 845.969788,2209.068604 806.549438,2205.565186 
	C765.110901,2201.882080 734.437256,2172.316162 726.334900,2135.647217 
	C717.991638,2097.887939 735.915649,2058.596191 770.032166,2039.703857 
	C825.975952,2008.724487 895.136597,2043.284424 903.405273,2106.559326 
	C905.422302,2121.994385 903.179321,2137.097168 896.407471,2152.117188 
z"/>
<path fill="#FCF7F8" opacity="1.000000" stroke="none" 
	d="
M595.281372,2135.864258 
	C610.228149,2143.882080 615.234009,2156.721436 615.003418,2171.930420 
	C614.788330,2186.110352 607.803223,2196.549072 595.227966,2203.032227 
	C592.663940,2204.354248 589.604675,2205.245605 586.737793,2205.349854 
	C578.442505,2205.651855 570.117615,2205.721680 561.825562,2205.374756 
	C552.939209,2205.003174 550.057190,2201.870850 550.001343,2193.024902 
	C549.896484,2176.412598 550.070618,2159.798340 549.915222,2143.186768 
	C549.872742,2138.658203 550.775879,2134.645508 555.851807,2134.640381 
	C568.740540,2134.627930 581.629944,2135.252686 595.281372,2135.864258 
z"/>
<path fill="#FCF7F8" opacity="1.000000" stroke="none" 
	d="
M551.851318,2077.808594 
	C550.465881,2074.818115 549.050049,2072.388184 548.973267,2069.916504 
	C548.694092,2060.933105 548.687622,2051.930908 548.914673,2042.944336 
	C549.123535,2034.679443 550.626770,2033.233032 559.225037,2033.296753 
	C565.867432,2033.345947 572.540955,2033.736328 579.137573,2034.511475 
	C594.442078,2036.309326 602.776794,2051.743652 596.276550,2065.846436 
	C588.864136,2081.928223 567.579590,2087.998535 551.851318,2077.808594 
z"/>
<path fill="#FCF7F8" opacity="1.000000" stroke="none" 
	d="
M125.896103,2081.970703 
	C111.712601,2092.520752 95.756996,2095.020752 78.890152,2097.258789 
	C78.635307,2094.095215 78.261940,2091.560059 78.254112,2089.023926 
	C78.201874,2072.102295 78.217995,2055.180664 78.239441,2038.259155 
	C78.242378,2035.942871 77.853676,2033.416870 78.642654,2031.372314 
	C79.370552,2029.486450 81.335060,2026.846191 82.931969,2026.716431 
	C100.534889,2025.284912 116.613266,2028.466064 128.356918,2043.309082 
	C138.857651,2056.581299 138.266418,2068.964111 125.896103,2081.970703 
z"/>
</svg>